<svg xmlns="http://www.w3.org/2000/svg" width="24" height="24" viewBox="0 0 24 24">
  <path fill="#5f4dd5" d="M15.0704 11.3114c1.5985-1.2766 3.1333-2.5425 4.7919-3.7008.5935-.4144 1.221-.8546 1.8797-1.1606.3026-.1411.5549-.2422.8984-.2367.378.0058.5466.2302.5051.6065-.0294.2679-.1583.5221-.2854.7555-.3877.712-.8867 1.291-1.424 1.8895-1.2666 1.4111-2.6002 2.7228-3.9726 4.0301-.6149.5859-1.1754 1.0577-2.0133 1.9147 0 0 .4567-.2744.5809-.3517 1.5698-.9749 3.0743-1.9728 4.7091-2.8373.6797-.3591 1.4054-.7098 2.1707-.8583.182-.0355.3765-.0411.5572.0102.2612.0745.2947.2356.2229.4969-.0586.2133-.1731.3969-.2988.5761-.4851.6898-1.073 1.2738-1.6842 1.8472-2.1711 2.0366-4.4716 3.8867-6.842 5.6839-.0885.0672-.2178.1654-.3566.1798-.0614-.2767-.0898-.3991-.1633-.6367-.1043-.3399-.2137-.6948-.3059-1.0381-.243-.9026-.5758-1.7586-1.0576-2.5649-.7476-1.2519-1.4483-2.5229-2.3504-3.6751-.135-.1724-.27-.3456-.4338-.4895-.1029-.0904-.2537-.2651-.4246-.2022-.1336.0522-.1015.4295-.0763.6083.0898.6324.3459 1.1644.5842 1.7488.2118.5208.4418 1.034.6629 1.551.0493.1151.1196.3329.1196.4484 0 0-1.1205-1.6044-1.681-2.3575-.417-.5607-.8369-1.1215-1.3452-1.6064-.1248-.1187-.244-.264-.3943-.3498-.1438-.0815-.3323-.2021-.5042-.1191-.1992.1382-.0507.5695.0196.8002.1648.5406.4502 1.026.722 1.5164.3775.6814.7728 1.3525 1.1591 2.0292.0619.1081.2188.3451.2253.4788 0 0-.9598-1.2249-1.4002-1.7675-.492-.6055-.9548-1.2259-1.5148-1.7722-.2062-.2012-.3934-.4187-.646-.5584-.15-.083-.3888-.2087-.5708-.1192-.1397.0913-.0029.4471.0628.6255.1387.3782.3538.7298.559 1.0754.6802 1.1458 1.4585 2.2258 2.2103 3.3235.0768.1123.3366.4868.3925.6279-.008.0078-1.236-1.2445-1.7397-1.7457-.5456-.5426-1.051-1.1145-1.672-1.5741-.1853-.1371-.4377-.3224-.6592-.395-.1685-.055-.2984-.0559-.4515.116-.109.1276.1145.5453.2336.7666.3008.558.6764 1.0666 1.066 1.5639.7933 1.0117 1.5962 2.0167 2.3979 3.0222.1522.1915.2532.3829.107.619-.1736.1034-.3416.0569-.5027-.0041a29.0691 29.0691 0 0 1-.9264-.3712c-.3924-.164-.788-.3186-1.2108-.3843-.5409-.0843-.9216.1133-1.0916.5584-.0158.041-.0293.0564-.0419.143 1.99.6442 3.4405 2.1396 5.3948 2.9794-.249.1313-.5647.2627-.8063.298-1.0785.158-2.132.0382-3.1496-.34-1.5445-.5747-2.9201-1.4759-4.0024-2.7194-.6047-.6944-.9538-1.5319-1.0339-2.4527-.0987-1.134.1546-2.2145.4865-3.2816.444-1.4279 1.059-2.8433 1.6618-4.2085.8859-2.006 1.7829-3.9742 2.4695-6.0598.183-.556.4222-1.1695.5875-2.0315.7085-.014 1.4324.5481 1.6576 1.224.1713.5127.1048 1.039.0428 1.568-.0981.8473-.3425 1.6335-.5516 2.4564-.099.389-.3389 1.5667-.323 1.7955.0224.3251.2048.496.5321.4643.257-.0251.453-.0885.6391-.2892a581.414 581.414 0 0 1 2.7479-2.9514c1.4375-1.5318 2.8498-3.0888 4.4112-4.4992.443-.4.8402-.7936 1.3597-1.0954.1285-.0744.262-.144.3999-.1984.6228-.2454.9873.1817.9379.6153-.0316.2752-.108.5757-.2155.8313-.3096.7346-.7462 1.4383-1.1889 2.0959-1.0022 1.4867-2.1343 2.9076-3.2213 4.331-.3901.5114-.7779 1.0195-1.1642 1.5336-.0815.1006-.385.4477-.385.4477s2.0096-1.8556 2.9364-2.712c1.4501-1.3396 2.9127-2.6818 4.4633-3.9068.4957-.3916 1.0199-.7778 1.5701-1.0908.2398-.1369.5265-.2622.7998-.3204.1517-.0321.3091-.048.4674.1583.1717.2483.0372.53-.0377.8087-.0997.3693-.3185.6832-.5201 1.005-.5567.8886-1.1958 1.6366-1.8876 2.42-1.322 1.4973-2.7232 2.9203-4.1197 4.3473-.257.2743-.4529.4111-.7061.7862.4152-.3377.7899-.613.951-.7453Z" />
</svg>