<svg xmlns="http://www.w3.org/2000/svg">
  <symbol id="cross" fill="currentColor" viewBox="0 0 24 24">
    <path fill-rule="evenodd" d="M6.228 6.2275a.75.75 0 0 1 1.0606 0l4.7123 4.7123 4.7123-4.7123a.75.75 0 0 1 1.0607 1.0606l-4.7123 4.7124 4.7123 4.7122a.75.75 0 0 1-1.0607 1.0607l-4.7123-4.7123-4.7123 4.7123a.75.75 0 1 1-1.0606-1.0607l4.7123-4.7122L6.228 7.2881a.75.75 0 0 1 0-1.0606Z" clip-rule="evenodd" />
  </symbol>

  <symbol id="pencil" fill="currentColor" viewBox="0 0 24 24">
    <path fill-rule="evenodd" d="M18.1413 4.702c-.4882-.4881-1.2797-.4881-1.7679 0l-.9496.9497 3.182 3.182.9497-.9497s-.0001 0 0 0c.4881-.4881.4881-1.2796 0-1.7678l-1.4142-1.4141Zm-.5962 5.1923-3.1819-3.182-9.0854 9.0853c0 .0001 0 0 0 0a1.2502 1.2502 0 0 0-.3612.7739l-.2421 2.7405a.25.25 0 0 0 .271.271l2.7404-.2421a1.2505 1.2505 0 0 0 .7739-.3612l9.0853-9.0854Zm-2.2323-6.253c1.0739-1.0738 2.8151-1.0739 3.8891 0l1.4142 1.4143c1.0739 1.074 1.0739 2.8151 0 3.889L9.5205 20.0405a2.7505 2.7505 0 0 1-1.7026.7947l-2.7404.2421c-1.085.0959-1.993-.8122-1.8972-1.8972l.242-2.7405a2.7502 2.7502 0 0 1 .7948-1.7025L15.3128 3.6414Z" clip-rule="evenodd" />
  </symbol>

  <symbol id="warning" fill="currentColor" viewBox="0 0 24 24">
    <path fill-rule="evenodd" d="M13.084 4.39a1.25 1.25 0 0 0-2.168 0l-.65-.375.65.374-8.042 13.988-.649-.373.649.373a1.25 1.25 0 0 0 1.083 1.873h16.086a1.25 1.25 0 0 0 1.084-1.873L13.084 4.389l.65-.374-.65.374Zm-3.468-.75c1.058-1.839 3.71-1.839 4.768 0l8.043 13.988c1.054 1.833-.27 4.12-2.384 4.12H3.957c-2.115 0-3.438-2.287-2.384-4.12L9.616 3.641ZM12 8.25a.75.75 0 0 1 .75.75v4a.75.75 0 0 1-1.5 0V9a.75.75 0 0 1 .75-.75Zm.567 9.25a.75.75 0 1 0-1.114-1.003l-.01.011a.75.75 0 1 0 1.114 1.004l.01-.011Z" clip-rule="evenodd" />
  </symbol>

  <symbol id="chevron-down" fill="currentColor" viewBox="0 0 24 24">
    <path fill-rule="evenodd" d="M5.4697 8.4697a.75.75 0 0 1 1.0606 0L12 13.9393l5.4697-5.4696a.75.75 0 0 1 1.0606 1.0607l-6 5.9999a.75.75 0 0 1-1.0606 0l-6-6a.75.75 0 0 1 0-1.0606Z" clip-rule="evenodd" />
  </symbol>

  <symbol id="list" fill="currentColor" viewBox="0 0 24 24">
    <path d="M3.5078 17.4424a.7497.7497 0 0 1 1.0595 1.0585l-.0097.0108c-.2773.3077-.7519.3328-1.0596.0557-.3076-.2773-.3328-.7519-.0557-1.0596l.0655-.0654ZM20 17.25a.75.75 0 0 1 0 1.5H8a.7502.7502 0 0 1-.75-.75.7502.7502 0 0 1 .75-.75h12ZM3.5078 11.4423a.7498.7498 0 0 1 1.0595 1.0586l-.0097.0108c-.2773.3076-.7519.3328-1.0596.0556-.3076-.2772-.3328-.7518-.0557-1.0595l.0655-.0655ZM20 11.25a.75.75 0 0 1 0 1.5H8a.7502.7502 0 0 1-.75-.75.7502.7502 0 0 1 .75-.75h12ZM3.4521 5.497a.7507.7507 0 0 1 1.0596-.0556.7504.7504 0 0 1 .0556 1.0595l-.0097.0108a.7505.7505 0 0 1-1.0596.0556.75.75 0 0 1-.0557-1.0586l.0098-.0117ZM20 5.25a.7501.7501 0 0 1 0 1.5H8A.7501.7501 0 0 1 7.25 6c0-.4141.3359-.75.75-.75h12Z" />
  </symbol>

  <symbol id="clipboard-check" fill="currentColor" viewBox="0 0 24 24">
    <path d="M22.0264 16.918a.7503.7503 0 0 1 1.0039.0517.7503.7503 0 0 1 .0517 1.0039l-.0517.0567-5 5a.7503.7503 0 0 1-1.0039.0517l-.0567-.0517-2-2-.0517-.0567a.7503.7503 0 0 1 .0517-1.0039.7503.7503 0 0 1 1.0039-.0517l.0567.0517L17.5 21.4395l4.4697-4.4698.0567-.0517ZM12 .25c1.3261 0 2.2378.5045 2.8252 1.1973.5157.6083.7367 1.3113.8359 1.8027H18c1.5188 0 2.75 1.2312 2.75 2.75v9a.75.75 0 0 1-1.5 0V6c0-.6904-.5596-1.25-1.25-1.25h-1.25v1.6504c-.0002.7452-.6043 1.3494-1.3496 1.3496H8.5996c-.7453-.0002-1.3494-.6043-1.3496-1.3496V4.75H6c-.6904 0-1.25.5596-1.25 1.25v14c0 .6904.5596 1.25 1.25 1.25h6a.75.75 0 0 1 0 1.5H6c-1.5188 0-2.75-1.2312-2.75-2.75V6c0-1.5188 1.2312-2.75 2.75-2.75h2.3379c.0992-.4914.3211-1.1943.8369-1.8027C9.7622.7545 10.6739.25 12 .25Zm0 1.5c-.8997 0-1.3883.321-1.6816.667-.2394.2824-.3813.6224-.464.9268l-.0644.289c-.087.4993-.4748.981-1.04 1.0928V6.25h6.5V4.7256c-.5249-.1038-.8975-.5266-1.0176-.9863l-.0224-.1065c-.0628-.3606-.2093-.8394-.5284-1.2158-.2933-.346-.7819-.667-1.6816-.667Z" />
  </symbol>

  <symbol id="calendar-plus" fill="currentColor" viewBox="0 0 24 24">
    <path d="M18.9922 15.25a.75.75 0 0 1 .75.75v2.25H22l.0771.0039a.75.75 0 0 1 0 1.4922L22 19.75h-2.2578V22a.75.75 0 0 1-1.5 0v-2.25h-2.25a.75.75 0 0 1 0-1.5h2.25V16a.75.75 0 0 1 .75-.75ZM7 1.25a.75.75 0 0 1 .75.75v4a.75.75 0 0 1-1.5 0V4.75H5c-.6904 0-1.25.5596-1.25 1.25v3.25h16.5V6c0-.6904-.5596-1.25-1.25-1.25h-.5a.75.75 0 0 1 0-1.5h.5c1.5188 0 2.75 1.2312 2.75 2.75v7a.75.75 0 0 1-1.5 0v-2.25H3.75V19c0 .6904.5596 1.25 1.25 1.25h8a.75.75 0 0 1 0 1.5H5c-1.5188 0-2.75-1.2312-2.75-2.75V6c0-1.5188 1.2312-2.75 2.75-2.75h1.25V2A.75.75 0 0 1 7 1.25Zm8 0a.75.75 0 0 1 .75.75v4a.75.75 0 0 1-1.5 0V4.75H10.5a.75.75 0 0 1 0-1.5h3.75V2a.75.75 0 0 1 .75-.75Z" />
  </symbol>
</svg>