<svg xmlns="http://www.w3.org/2000/svg">

  <symbol id="check-circle" fill="currentColor" viewBox="0 0 24 24">
    <path d="M12.25.75c6.352 0 11.5 5.148 11.5 11.5s-5.148 11.5-11.5 11.5S.75 18.602.75 12.25 5.898.75 12.25.75Zm3.396 7.958a.887.887 0 0 0-.577.374l-3.817 5.343-1.915-1.916a.885.885 0 0 0-1.25 1.251l2.653 2.654a.886.886 0 0 0 1.345-.112l4.423-6.192a.886.886 0 0 0-.862-1.402Z" />
  </symbol>

  <symbol id="bsl-hands" fill="currentColor" viewBox="0 0 24 24">
    <path d="m22.75 8.4023-.0391 2.8516c0 2.0312-.9374 3.9453-2.5 5.1953.0391-.0781.0391-.1562.0391-.2343v-.3126c0-2.7734-1.4453-5.3906-3.8282-6.875L14.0391 7.543c-.3126-.1954-.6641-.3125-1.0547-.3516l-1.7969-3.125c-.2344-.4297-.0781-1.0156.3516-1.289.4687-.2344 1.0156-.0782 1.289.3515l3.0469 5.2734c.1172.2344.4297.3126.625.1954.2344-.1563.3125-.4297.1953-.664l-2.4218-4.1798c-.2735-.4688-.1172-1.0156.3124-1.289.4688-.2344 1.0547-.1173 1.2891.3515l2.6563 4.6094 1.6796 2.9297.0391-1.9532c0-.664.5469-1.25 1.25-1.25.664 0 1.25.586 1.25 1.25ZM10.9922 5.629l.9765 1.6406c-.5469.1953-1.0156.5469-1.3672 1.0547-.039.0781-.039.1172-.0781.1953L9.3906 6.5664c-.2734-.4688-.1171-1.0156.3516-1.289.4297-.2735 1.0156-.1173 1.2891.3515h-.0391Zm-1.7969 2.5L10.25 9.9258c0 .2343.0781.4687.1562.664h-1.914l-.8985-1.5234c-.2734-.4687-.1171-1.0547.3125-1.289.4688-.2735 1.0547-.1173 1.2891.3515Zm2.461.8594c.3906-.586 1.1718-.7422 1.7578-.3906l2.3437 1.4843C17.75 11.332 19 13.5586 19 15.9023v.3126c0 3.2812-2.6953 5.9375-5.9375 5.9375h-6.875c-.5469 0-.9375-.3907-.9375-.9375 0-.5079.3906-.9375.9375-.9375h3.5937c.2344 0 .4688-.1954.4688-.4688 0-.2344-.2344-.4688-.4688-.4688H4.9375c-.5469 0-.9375-.3906-.9375-.9375 0-.5077.3906-.9375.9375-.9375h4.8437c.2344 0 .4688-.1953.4688-.4687 0-.2344-.2344-.4688-.4688-.4688H3.6875c-.5469 0-.9375-.3906-.9375-.9375 0-.5078.3906-.9374.9375-.9374h6.0937c.2344 0 .4688-.1953.4688-.4688 0-.2344-.2344-.4687-.4688-.4687H4.9375c-.5469 0-.9375-.3907-.9375-.9375 0-.5079.3906-.9376.9375-.9376h8.9453l-1.7969-1.0937c-.5859-.3906-.7812-1.1719-.4296-1.7578Z" />
  </symbol>

  <symbol id="lips" fill="currentColor" viewBox="0 0 24 24">
    <path d="M12.25 6.9028c.1042-.1042.2083-.1736.3125-.2778.625-.4167 1.6319-1.0417 2.7431-1.0417.6944 0 1.4583.3473 2.118.6945.6944.3472 1.4236.8333 2.0833 1.3541.6598.5209 1.2848 1.0764 1.7709 1.632.243.243.4513.5209.625.7986.1389.2778.3472.6597.3472 1.0764 0 .3472-.1042.6597-.2083.9722a6.3076 6.3076 0 0 1-.4514 1.0417c-.3472.7639-.9028 1.6319-1.632 2.4653-1.4583 1.6666-3.6805 3.2986-6.5972 3.2986h-2.2222c-2.9514 0-5.1736-1.632-6.632-3.2986-.7291-.8334-1.25-1.7014-1.6319-2.4653a6.3024 6.3024 0 0 1-.4514-1.0417c-.1042-.2778-.1736-.625-.1736-.9722 0-.4167.1736-.7986.3125-1.0764.1736-.2777.382-.5556.625-.7986.4861-.5556 1.1111-1.1111 1.7708-1.632.6597-.5208 1.389-1.0069 2.0834-1.3541.6597-.3472 1.4236-.6945 2.1528-.6945 1.0763 0 2.0833.625 2.7083 1.0417.1041.1042.243.1736.3472.2778Zm-7.7778 4.2361c0 .2778 2.7778 3.3333 7.7778 3.3333s7.7778-3.0555 7.7778-3.3333c0-.2431-1.632-1.0764-4.8264-1.1111-.1389 0-.2431.0347-.3472.0694-.4515.1389-1.7361.4862-2.6042.4862-.9028 0-2.1527-.3473-2.6389-.4862-.1041-.0347-.2083-.0694-.3472-.0347-3.1944 0-4.7917.8333-4.7917 1.0764Z" />
  </symbol>

  <symbol id="hearing-loop" fill="currentColor" viewBox="0 0 24 24">
    <path d="m22.3695 4.3866-1.561 1.561c-.4682.5073-1.2878.5073-1.7561 0-.5073-.4683-.5073-1.2878 0-1.7561l1.561-1.561c.4683-.5073 1.2878-.5073 1.7561 0 .5073.4683.5073 1.2878 0 1.756ZM9.8817 16.8744l-4.9951 4.9951c-.4683.5073-1.2878.5073-1.7561 0-.5073-.4683-.5073-1.2878 0-1.7561l4.9951-4.9951c.4683-.5074 1.2878-.5074 1.7561 0 .5073.4683.5073 1.2878 0 1.7561Zm2.2634-9.639c-2.2634 0-4.1366 1.717-4.3707 3.9024a1.2284 1.2284 0 0 1-1.3659 1.0926 1.2284 1.2284 0 0 1-1.0926-1.3658c.3512-3.4341 3.278-6.1268 6.8292-6.1268 3.7854 0 6.8683 3.083 6.8683 6.8683 0 1.7951-.7025 3.4341-1.8341 4.6829-.4684.5073-.6635.9757-.6635 1.3268v.2342c0 2.4195-1.9902 4.3707-4.3707 4.3707-.7024 0-1.2488-.5463-1.2488-1.2488 0-.6634.5464-1.2488 1.2488-1.2488 1.0146 0 1.8732-.8194 1.8732-1.8731v-.2342c0-1.2878.6634-2.3024 1.3268-3.0439.7024-.7805 1.1707-1.7951 1.1707-2.9658 0-2.3805-1.9902-4.3707-4.3707-4.3707Zm0 3.1219c-.7024 0-1.2488.5854-1.2488 1.2488 0 .5463-.4292.9366-.9366.9366-.5463 0-.9365-.3903-.9365-.9366 0-1.717 1.3658-3.122 3.1219-3.122 1.7171 0 3.122 1.405 3.122 3.122 0 .5463-.4293.9366-.9367.9366-.5462 0-.9365-.3903-.9365-.9366 0-.6634-.5853-1.2488-1.2488-1.2488Z" />
  </symbol>

  <symbol id="blind-person" fill="currentColor" viewBox="0 0 24 24">
    <path d="M9.1444 5.9943c-.702 0-1.2872-.351-1.6382-.936-.351-.5461-.351-1.2872 0-1.8722.351-.546.9361-.9361 1.6382-.9361.663 0 1.248.39 1.5991.936.351.5851.351 1.3262 0 1.8722-.3511.585-.936.9361-1.5991.9361Zm-.3511 1.2481h.9751c1.1701 0 2.2622.585 2.9643 1.5212l3.0032 3.9783c.429.546.312 1.3261-.234 1.7552-.546.4289-1.3261.3119-1.7552-.2341l-2.7302-3.6663v3.6273l1.9112 1.9502c.351.351.585.8191.585 1.3261v3.4712c0 .7021-.585 1.2482-1.248 1.2482-.7021 0-1.2482-.5461-1.2482-1.2482v-3.1982L7.9742 14.77c-.468-.468-.702-1.131-.702-1.7941v-1.6771L5.8681 14.068c-.312.624-1.0531.858-1.6772.546-.624-.312-.858-1.053-.546-1.6771l1.7942-3.5883c.663-1.2871 1.9501-2.1062 3.3542-2.1062Zm-1.5211 8.5417 2.0672 2.0672-.858 3.4323c-.195.6631-.8582 1.0921-1.5212.8971-.663-.156-1.0921-.8191-.8971-1.4822l1.2091-4.9144Zm12.5591 6.2016-4.6024-6.6696c.234-.078.429-.156.624-.3121.156-.117.312-.273.39-.39l4.6415 6.6306c.195.312.117.6631-.156.8971-.3121.195-.7021.117-.8971-.156Z" />
  </symbol>

  <symbol id="speech-bubble" fill="currentColor" viewBox="0 0 24 24">
    <path d="M2.7561 4.7485c0-1.3664 1.0931-2.4985 2.4985-2.4985h14.9908c1.3664 0 2.4985 1.1321 2.4985 2.4985v11.243c0 1.4055-1.1321 2.4986-2.4985 2.4986H14.819l-4.8407 3.6306c-.1953.1561-.4295.1561-.6637.078-.1952-.1171-.3123-.3123-.3123-.5856v-3.123H5.2546c-1.4054 0-2.4985-1.0931-2.4985-2.4986V4.7485ZM8.69 7.8715c-.5465 0-.937.4295-.937.937 0 .5466.3904.937.937.937h8.12c.5075 0 .9369-.3904.9369-.937 0-.5075-.4294-.937-.9369-.937H8.69Zm0 3.7477c-.5465 0-.937.4295-.937.937 0 .5465.3904.937.937.937h4.3723c.5075 0 .937-.3905.937-.937 0-.5075-.4295-.937-.937-.937H8.69Z" />
  </symbol>

  <symbol id="pencil" fill="currentColor" viewBox="0 0 24 24">
    <path d="M16.4261 2.9832c.9775-.9776 2.5807-.9776 3.5583 0l1.5249 1.525c.9776.9775.9776 2.5806 0 3.5582l-1.8769 1.877L14.5492 4.86l1.8769-1.8768Zm-2.7763 2.7762 5.0833 5.0832-9.1108 9.1108c-.391.391-.8993.7038-1.4467.8602l-4.7313 1.4076c-.3129.0783-.6648 0-.8994-.2737-.2737-.2345-.3519-.5865-.2346-.8993l1.3686-4.7313c.1564-.5474.4692-1.0558.8602-1.4468l9.1107-9.1107Z" />
  </symbol>

  <symbol id="cross" fill="currentColor" viewBox="0 0 24 24">
    <path d="M22.75 10.327v3.846c0 .4081-.1621.7994-.4506 1.088a1.5388 1.5388 0 0 1-1.0879.4505h-5v5c0 .4081-.1621.7994-.4505 1.0879a1.5389 1.5389 0 0 1-1.088.4506h-3.846a1.5387 1.5387 0 0 1-1.5385-1.5385v-5h-5a1.539 1.539 0 0 1-1.0879-.4505 1.5388 1.5388 0 0 1-.4506-1.088v-3.846a1.5387 1.5387 0 0 1 1.5385-1.5385h5v-5A1.5385 1.5385 0 0 1 10.827 2.25h3.846a1.5385 1.5385 0 0 1 1.5385 1.5385v5h5A1.5384 1.5384 0 0 1 22.75 10.327Z" />
  </symbol>

  <symbol id="certificate" fill="currentColor" viewBox="0 0 24 24">
    <path d="M20.8216 7.8298v-2.726a1.4282 1.4282 0 0 0-1.4285-1.4285H3.6786A1.4286 1.4286 0 0 0 2.25 5.1039v11.4287a1.4284 1.4284 0 0 0 1.4286 1.4285H14.393v2.1429a.7138.7138 0 0 0 .3544.6234.7135.7135 0 0 0 .717.0016l2.143-1.2267 2.1428 1.2267a.7138.7138 0 0 0 .7171-.0016.7141.7141 0 0 0 .3543-.6234v-5.583a4.6327 4.6327 0 0 0 1.0564-5.1645 4.6326 4.6326 0 0 0-1.0564-1.5267Zm-9.2858 5.1313h-5a.7145.7145 0 0 1-.7143-.7143.7145.7145 0 0 1 .7143-.7143h5a.7147.7147 0 0 1 .5051.2092.7147.7147 0 0 1 0 1.0102.7147.7147 0 0 1-.5051.2092Zm0-2.8572h-5a.7145.7145 0 0 1-.7143-.7143.7143.7143 0 0 1 .7143-.7143h5a.7145.7145 0 0 1 .7143.7143.7145.7145 0 0 1-.7143.7143Zm7.8573 8.7689-1.4286-.8179a.7144.7144 0 0 0-.709 0l-1.4286.8179v-3.4117a4.6332 4.6332 0 0 0 3.5715 0l-.0053 3.4117Zm-1.7857-4.4831a3.2145 3.2145 0 0 1-2.9698-1.9843 3.2142 3.2142 0 0 1 .6968-3.503 3.2143 3.2143 0 1 1 2.273 5.4873Z" />
  </symbol>

  <symbol id="circle-cross" fill="currentColor" viewBox="0 0 24 24">
    <path fill-rule="evenodd" d="M12.75 2.25c-5.523 0-10 4.477-10 10 0 5.5231 4.477 10 10 10 5.5231 0 10-4.4769 10-10 0-5.523-4.4769-10-10-10Zm-1.7641 7.1487a.7684.7684 0 0 0-.5492-.2447.7696.7696 0 0 0-.7268.481.7694.7694 0 0 0 .1888.8509l1.7641 1.7641-1.764 1.7641a.7684.7684 0 0 0-.2448.5492.7696.7696 0 0 0 .481.7268.7696.7696 0 0 0 .8509-.1888l1.7641-1.7641 1.7641 1.7641a.7674.7674 0 0 0 .2497.1782.768.768 0 0 0 .6012.0106.7677.7677 0 0 0 .4251-.4251.7696.7696 0 0 0-.1888-.8509L13.8372 12.25l1.7641-1.7641a.7674.7674 0 0 0 .1782-.2497.768.768 0 0 0 .0106-.6012.7686.7686 0 0 0-.7268-.481.7693.7693 0 0 0-.5492.2447L12.75 11.1628l-1.7641-1.764Z" clip-rule="evenodd" />
  </symbol>

  <symbol id="user-circle-star" fill="currentColor" viewBox="0 0 24 24">
    <path d="M7.7748 3.8074a10.0012 10.0012 0 0 1 6.1353-.9187c.4191.0707.7013.468.6307.8871a.7697.7697 0 0 1-.8863.6315 8.4608 8.4608 0 0 0-5.1904.7766 8.461 8.461 0 0 0-4.573 8.8696 8.4614 8.4614 0 0 0 2.0313 4.313 7.7002 7.7002 0 0 1 3.4597-2.7516c-1.0712-.8459-1.7584-2.1565-1.7584-3.6273.0001-2.5509 2.068-4.619 4.6189-4.619 2.5508.0001 4.6188 2.0682 4.619 4.619 0 1.4709-.688 2.7814-1.7592 3.6273a7.7039 7.7039 0 0 1 3.4665 2.7614 8.4626 8.4626 0 0 0 2.0246-7.0308.7696.7696 0 0 1 1.5178-.2548 10 10 0 0 1-3.0966 9.0244.7654.7654 0 0 1-.1714.1542 10.0007 10.0007 0 0 1-13.151.03.7651.7651 0 0 1-.2594-.233A10.001 10.001 0 0 1 3.3617 8.167a10.0005 10.0005 0 0 1 4.413-4.3596Zm4.4678 12.7991a4.6277 4.6277 0 0 1-.1345-.0015 6.1594 6.1594 0 0 0-3.0876.9082 6.1598 6.1598 0 0 0-1.9592 1.9193 8.46 8.46 0 0 0 10.3672.0083 6.1604 6.1604 0 0 0-1.9645-1.9276 6.1605 6.1605 0 0 0-3.0876-.9082 4.5757 4.5757 0 0 1-.1338.0015Zm0-7.6982c-1.7005 0-3.0791 1.3788-3.0793 3.0793 0 1.6594 1.3125 3.0124 2.956 3.077.0408-.0007.0818-.0007.1226-.0007.041 0 .0823 0 .1233.0007 1.6437-.0644 2.9567-1.4175 2.9567-3.077-.0001-1.7004-1.3789-3.0792-3.0793-3.0793Zm6.9285-5.7738a.7703.7703 0 0 1 .7698.7698v.8654l.8225-.2677a.7699.7699 0 0 1 .4751 1.4645l-.8217.2676.5082.7a.7695.7695 0 1 1-1.2449.9051l-.509-.7007-.509.7007a.7698.7698 0 1 1-1.2457-.9051l.509-.7-.8232-.2676a.7698.7698 0 0 1-.4939-.9698.77.77 0 0 1 .9698-.4947l.8232.2677v-.8654a.77.77 0 0 1 .7698-.7698Z" />
  </symbol>

  <symbol id="apple" fill="currentColor" viewBox="0 0 24 24">
    <path d="M16.7169 7.583a4.6662 4.6662 0 0 1 3.6497 1.9832c-.0833.0583-2.1832 1.2749-2.1582 3.8081.0334 3.0248 2.6582 4.0331 2.6832 4.0497-.0167.0667-.4166 1.4333-1.3832 2.8415-.8333 1.2166-1.6999 2.4332-3.0582 2.4582-1.3332.025-1.7749-.8-3.2998-.8-1.5332 0-2.0165.775-3.283.825-1.3083.05-2.3166-1.3166-3.1499-2.5332-1.7248-2.4832-3.033-7.0162-1.2749-10.0827A4.8915 4.8915 0 0 1 9.584 7.633c1.2916-.025 2.5082.8666 3.2998.8666.7916 0 2.2748-1.075 3.8331-.9166Zm.0166-4.833a4.4159 4.4159 0 0 1-1.0416 3.1914 3.7168 3.7168 0 0 1-2.9664 1.4166 4.1917 4.1917 0 0 1 1.0582-3.0915A4.4832 4.4832 0 0 1 16.7335 2.75Z" />
  </symbol>

  <symbol id="bell" fill="currentColor" viewBox="0 0 24 24">
    <path d="M12.2482 2.7533a6.924 6.924 0 0 1 4.8957 2.0286 6.924 6.924 0 0 1 2.0286 4.8958v.7693a8.4309 8.4309 0 0 0 2.1729 5.6631.7697.7697 0 0 1 .1743.3276.77.77 0 0 1-.1733.6993.772.772 0 0 1-.3065.2094 25.2239 25.2239 0 0 1-4.9549 1.2762 3.8477 3.8477 0 0 1-1.0188 2.8992 3.848 3.848 0 0 1-1.2813.9076 3.8462 3.8462 0 0 1-1.5367.3206 3.8467 3.8467 0 0 1-1.5368-.3206 3.8468 3.8468 0 0 1-2.0927-2.251 3.8478 3.8478 0 0 1-.2074-1.5558 25.1901 25.1901 0 0 1-4.9558-1.2752.771.771 0 0 1-.4809-.538.7702.7702 0 0 1 .001-.3717.769.769 0 0 1 .1743-.3276 8.4306 8.4306 0 0 0 2.1739-5.6631v-.7693a6.9245 6.9245 0 0 1 6.9244-6.9244Zm2.3061 16.0547a25.7065 25.7065 0 0 1-4.6122 0c-.002.0337-.002.0674-.002.1021a2.3085 2.3085 0 0 0 2.3081 2.3082 2.3089 2.3089 0 0 0 2.3081-2.3082l-.002-.1021Zm4.6172-16.0567a.7704.7704 0 0 1 .2916.0761.7703.7703 0 0 1 .2394.1824 9.9714 9.9714 0 0 1 2.4103 5.0019.7719.7719 0 0 1-.009.3005.7729.7729 0 0 1-.3426.4799.7707.7707 0 0 1-.8546-.026.7707.7707 0 0 1-.3125-.5 8.4323 8.4323 0 0 0-2.0377-4.2305.7702.7702 0 0 1-.1552-.2585.7692.7692 0 0 1-.0431-.2985.7703.7703 0 0 1 .0741-.2915.7716.7716 0 0 1 .1813-.2405.771.771 0 0 1 .558-.1953Zm-13.8517.021a.7697.7697 0 0 1 .7974.7143.7689.7689 0 0 1-.1783.549A8.4315 8.4315 0 0 0 3.9023 8.266a.7696.7696 0 0 1-.8836.6151.769.769 0 0 1-.4939-.3055.7698.7698 0 0 1-.1402-.564 9.972 9.972 0 0 1 2.4093-5.002.7696.7696 0 0 1 .5259-.2374Z" />
  </symbol>

  <symbol id="building" fill="currentColor" viewBox="0 0 24 24">
    <path d="M5.0577 2.75a.7692.7692 0 1 0 0 1.5385v16.923h-.7692a.7695.7695 0 0 0-.7693.7693.7693.7693 0 0 0 .7693.7692h16.923a.7693.7693 0 1 0 0-1.5385h-.7692V4.2885a.769.769 0 0 0 .5439-1.3132.769.769 0 0 0-.5439-.2253H5.0577ZM9.673 6.5961a.7692.7692 0 0 0 0 1.5385h1.5384a.7695.7695 0 0 0 .7693-.7692.7695.7695 0 0 0-.7693-.7693H9.6731Zm-.7693 3.8462a.7692.7692 0 0 1 .7693-.7692h1.5384a.7695.7695 0 0 1 .7693.7692.7693.7693 0 0 1-.7693.7692H9.6731a.769.769 0 0 1-.7693-.7692ZM9.673 12.75a.769.769 0 0 0-.7693.7692.7695.7695 0 0 0 .7693.7693h1.5384a.7697.7697 0 0 0 .544-.2253.7695.7695 0 0 0-.544-1.3132H9.6731Zm3.8461-5.3846a.7695.7695 0 0 1 .7693-.7693h1.5384a.769.769 0 0 1 .5439 1.3132.769.769 0 0 1-.5439.2253h-1.5384a.7693.7693 0 0 1-.7693-.7692Zm.7693 2.3077a.7693.7693 0 1 0 0 1.5384h1.5384a.769.769 0 0 0 .7692-.7692.769.769 0 0 0-.7692-.7692h-1.5384Zm-.7693 3.8461a.7695.7695 0 0 1 .7693-.7692h1.5384a.769.769 0 0 1 .7692.7692.7693.7693 0 0 1-.7692.7693h-1.5384a.7696.7696 0 0 1-.7693-.7693ZM9.673 20.4423v-2.3077a.7691.7691 0 0 1 .7692-.7692h4.6154a.769.769 0 0 1 .7692.7692v2.3077a.769.769 0 0 1-.7692.7692h-4.6154a.769.769 0 0 1-.7692-.7692Z" />
  </symbol>

  <symbol id="calendar-down" fill="currentColor" viewBox="0 0 24 24">
    <path d="M18.2963 15.7733c.3852 0 .6981.3121.6982.6973v3.8974l1.5996-1.5996a.6973.6973 0 0 1 .9863 0 .6973.6973 0 0 1 0 .9864l-2.79 2.791a.6986.6986 0 0 1-.9873 0l-2.79-2.791a.6974.6974 0 1 1 .9863-.9864l1.5996 1.5996v-3.8974a.6975.6975 0 0 1 .6973-.6973ZM7.1342 2.7499a.6976.6976 0 0 1 .6972.6972v3.7217a.6975.6975 0 0 1-.6972.6973.6981.6981 0 0 1-.6983-.6973v-1.163H5.2738c-.6422 0-1.163.5208-1.163 1.163v3.0225h15.3486V7.1688c0-.6422-.5209-1.163-1.1631-1.163h-.4649a.6974.6974 0 0 1-.6972-.6973c0-.3853.312-.6982.6972-.6983h.4649c1.4128 0 2.5586 1.1458 2.5586 2.5586v9.3018a.698.698 0 0 1-.2041.4931l-.2608.2618v-.7549c-.0001-1.1558-.9379-2.0928-2.0937-2.0928-1.1557.0002-2.0927.9371-2.0928 2.0928v.8174c-.7362-.2596-1.5888-.0956-2.1777.4931-.8173.8173-.8171 2.1426 0 2.96l1.0781 1.0781H5.2738c-1.4128 0-2.5586-1.1448-2.5586-2.5576V7.1688c0-1.4128 1.1458-2.5586 2.5586-2.5586h1.1621v-1.163a.6981.6981 0 0 1 .6983-.6973Zm7.4414 0c.3851 0 .698.3121.6982.6972v3.7217a.698.698 0 0 1-.6982.6973.6974.6974 0 0 1-.6973-.6973v-1.163H10.39a.6982.6982 0 0 1-.6982-.6973.6987.6987 0 0 1 .6982-.6983h3.4883v-1.163a.6975.6975 0 0 1 .6973-.6973Z" />
  </symbol>

  <symbol id="calendar-plus" fill="currentColor" viewBox="0 0 24 24">
    <path d="M18.7896 15.7734a.6975.6975 0 0 1 .6972.6973v2.0928h2.1006c.3852.0001.6973.313.6973.6982a.6974.6974 0 0 1-.6973.6973h-2.1006v2.0937a.6976.6976 0 0 1-.6972.6973c-.3852 0-.6981-.3122-.6983-.6973V19.959h-2.0928a.697.697 0 0 1-.6972-.6973c0-.3853.3119-.6982.6972-.6982h2.0928v-2.0928c.0001-.3852.313-.6973.6983-.6973ZM7.6343 2.75a.6976.6976 0 0 1 .6972.6973v3.7216a.6975.6975 0 0 1-.6972.6973.6982.6982 0 0 1-.6983-.6973V6.006H5.774c-.6423 0-1.1632.5209-1.1632 1.163v3.0225h15.3487V7.1689c0-.6421-.5209-1.163-1.1631-1.163h-.4649a.6974.6974 0 0 1-.6972-.6973c0-.3853.312-.6982.6972-.6982h.4649c1.4128 0 2.5586 1.1457 2.5586 2.5585v9.3018a.6985.6985 0 0 1-.2041.4932l-.2051.205h-.0635v-.6982c-.0001-1.1558-.937-2.0927-2.0927-2.0928-1.156 0-2.0927.937-2.0928 2.0928v.6982h-.6983c-1.1559.0002-2.0927.937-2.0927 2.0928s.9369 2.0927 2.0927 2.0928h.6983v.0635l-.1973.1972a.6971.6971 0 0 1-.4932.2041H5.7739c-1.4128 0-2.5585-1.1448-2.5586-2.5576V7.1689c0-1.4128 1.1458-2.5585 2.5586-2.5585H6.936V3.4473a.6982.6982 0 0 1 .6983-.6973Zm7.4414 0c.3851 0 .698.3121.6982.6973v3.7216a.698.698 0 0 1-.6982.6973.6974.6974 0 0 1-.6973-.6973V6.006h-3.4883c-.3851 0-.698-.3122-.6982-.6973a.6986.6986 0 0 1 .6982-.6982h3.4883V3.4473a.6975.6975 0 0 1 .6973-.6973Z" />
  </symbol>

  <symbol id="calendar-tick" fill="currentColor" viewBox="0 0 24 24">
    <path d="M20.594 17.8382a.6974.6974 0 0 1 .9865 0 .6974.6974 0 0 1 0 .9865l-3.7209 3.721a.6977.6977 0 0 1-.9866 0l-1.8604-1.8605a.6977.6977 0 0 1 .9865-.9866l1.3672 1.3672 3.2277-3.2276ZM7.1337 2.75a.6977.6977 0 0 1 .6977.6977v3.721a.6977.6977 0 0 1-1.3954 0v-1.163H5.2733c-.6422 0-1.1628.5206-1.1628 1.1628v3.0233h15.3488V7.1686c0-.6422-.5205-1.1628-1.1627-1.1628h-.4652a.6976.6976 0 0 1-.6976-.6976.6976.6976 0 0 1 .6976-.6977h.4652c1.4128 0 2.5581 1.1453 2.5581 2.5581v9.0825a2.0842 2.0842 0 0 0-1.2473.6005l-2.2411 2.2411-.3806-.3806c-.8174-.8174-2.1423-.8174-2.9597 0-.8173.8174-.8173 2.1423 0 2.9597l.1481.148H5.2733c-1.4129 0-2.5582-1.1453-2.5582-2.5581V7.1687c0-1.4129 1.1453-2.5582 2.5581-2.5582H6.436V3.4477a.6977.6977 0 0 1 .6977-.6977Zm7.4419 0a.6977.6977 0 0 1 .6977.6977v3.721a.6977.6977 0 0 1-1.3954 0v-1.163h-3.4884a.6977.6977 0 0 1 0-1.3953h3.4884V3.4477a.6977.6977 0 0 1 .6977-.6977Z" />
  </symbol>

  <symbol id="down-arrow" fill="currentColor" viewBox="0 0 24 24">
    <path d="M21.1809 7.1302c.9613.0003 1.4595 1.1474.8037 1.8506l-8.4298 9.0391-.0849.0821c-.4118.357-1.0278.3571-1.4395 0l-.085-.0821-8.4297-9.0391-.1104-.1367c-.4814-.7053.0133-1.7133.9141-1.7139h16.8615ZM12.755 17.3686Z" />
  </symbol>

  <symbol id="email" fill="currentColor" viewBox="0 0 24 24">
    <path d="M22.25 17.7505a2.8588 2.8588 0 0 1-.8369 2.0205 2.8579 2.8579 0 0 1-2.0205.8359H5.1074a2.8578 2.8578 0 0 1-2.0205-.8359 2.8585 2.8585 0 0 1-.8369-2.0205V9.5786l8.5029 5.2315c.4503.277.9685.4238 1.4971.4238a2.8574 2.8574 0 0 0 1.4971-.4238L22.25 9.5786v8.1719ZM19.3926 4.8931A2.8577 2.8577 0 0 1 22.25 7.7505v.1504l-9.251 5.6933a1.4302 1.4302 0 0 1-.749.212 1.4302 1.4302 0 0 1-.749-.212L2.25 7.9009v-.1504A2.8577 2.8577 0 0 1 5.1074 4.893h14.2852Z" />
  </symbol>

  <symbol id="eye-open" fill="currentColor" viewBox="0 0 24 24">
    <path d="M12.749 10.9726c2.1169.0001 3.833 1.7161 3.833 3.833-.0002 2.1168-1.7162 3.833-3.833 3.8331-2.1168-.0002-3.833-1.7163-3.833-3.8331s1.7162-3.8328 3.833-3.833Zm-9.7413 2.0909c4.079-8.2694 15.4056-8.2696 19.4844 0l.1914.4062.0284.0723a.751.751 0 0 1-.4043.9199.7508.7508 0 0 1-.9571-.3076l-.0351-.0684-.166-.3525c-3.5878-7.2782-13.585-7.1604-16.9659.3525l-.0342.0684a.7509.7509 0 0 1-.957.3076.7505.7505 0 0 1-.376-.9922l.1915-.4062Z" />
  </symbol>

  <symbol id="eye-closed" fill="currentColor" viewBox="0 0 24 24">
    <path d="M20.8508 6.9916a.75.75 0 0 1 1.333.6836l-.1914.4072c-.8817 1.7875-2.103 3.1875-3.5156 4.2022l2.0869 2.8633.042.0644a.7502.7502 0 0 1-1.2061.8789l-.0478-.0595-2.1563-2.958a10.6715 10.6715 0 0 1-4.1953 1.1835v2.875a.75.75 0 0 1-1.5 0v-2.875a10.6724 10.6724 0 0 1-4.1963-1.1835l-2.1552 2.958-.0489.0595a.7496.7496 0 0 1-.999.1045c-.3347-.2439-.409-.7131-.165-1.0478l2.0869-2.8633c-1.4124-1.0147-2.633-2.415-3.5147-4.2022l-.1914-.4072-.0283-.0713a.7498.7498 0 0 1 .4043-.9199.7502.7502 0 0 1 .957.3076l.0342.0684.166.3515c3.5875 7.2789 13.5848 7.1618 16.9658-.3515l.0352-.0684Z" />
  </symbol>

  <symbol id="google" fill="currentColor" viewBox="0 0 24 24">
    <path d="M7.5088 22.25H4.75c-1.1046 0-2-.8954-2-2v-2.7588h4.7588V22.25Zm9.9238 0H8.0674v-4.7686h9.3652V22.25Zm.5586 0v-4.7588H22.75L17.9912 22.25Zm-.5586-20v4.7686h-9.914v9.914H2.75V4.25c0-1.1046.8954-2 2-2h12.6826ZM22.75 16.9326h-4.7686V7.5674H22.75v9.3652Zm-11.8779-7.788c.3697 0 .7032.0714.998.2148.2946.1434.5263.3422.6934.5947.1669.2538.2499.538.25.8535 0 .3224-.0782.5947-.2334.8184-.1553.2237-.346.3948-.5723.5146v.0537c.2987.125.5423.3167.7344.5733.1906.2565.2871.5631.2871.9209-.0001.3578-.0909.6778-.2725.958-.1816.2802-.4336.5006-.7519.6611-.3196.1605-.6786.2422-1.0772.2422-.4617.0013-.8879-.1317-1.2812-.3975-.3934-.2658-.6658-.6537-.8145-1.1669l.9131-.376c.083.3157.227.5607.4336.7344.2053.1736.456.2587.7481.2587.2985 0 .5552-.0909.7695-.2724.2143-.1816.3223-.4133.3223-.6934-.0001-.2867-.1136-.5206-.3399-.7021-.2263-.1815-.5101-.2725-.8496-.2725h-.5273v-.9043h.4736c.2919-.0001.5384-.0785.7383-.2363.1999-.1579.2998-.3745.2998-.6494-.0001-.2445-.0899-.4391-.2686-.585-.1789-.146-.4056-.2197-.6806-.2197-.2683 0-.4818.0705-.6397.2138-.1579.1435-.2724.3205-.3447.5284l-.9033-.377c.1197-.3393.3399-.6393.662-.8984.3224-.259.7338-.3896 1.2335-.3897Zm5.3672 6.2636H15.25v-4.7871l-.9971.7246-.5019-.7598 1.7988-1.2978h.6895v6.1201ZM20.75 2.25c1.1046 0 2 .8954 2 2v2.7588h-4.7588V2.25H20.75Z" />
  </symbol>

  <symbol id="ms-office" fill="currentColor" viewBox="0 0 24 24">
    <path d="M3.9495 18.3837V6.225L14.7052 2.25l5.8453 1.8706V20.488l-5.8453 1.762-10.7557-3.8663 10.7557 1.2943V5.5236L7.6905 7.1604v9.5867l-3.741 1.6366Z" />
  </symbol>

  <symbol id="outlook" fill="currentColor" viewBox="0 0 24 24">
    <path d="M14.2715 22.1104 2.5 19.6426V4.168l11.7715-2.2784v20.2208Zm8.2285-6.25c-.0001.7912-.5066 1.123-1.0762 1.123h-6.4082v-5.375h.001l1.2607.8662c.1778.1306.3926 0 .3926 0-.2127.1302 5.7913-3.858 5.8301-3.8838v7.2696ZM8.5185 8.4639c-.8224 0-1.4834.3326-1.9824.997-.499.6646-.748 1.5352-.748 2.6114 0 1.019.2457 1.8456.7363 2.4804.4914.6341 1.1264.9512 1.9063.9512.8003 0 1.4488-.3279 1.9463-.9824.4974-.6547.7468-1.5178.746-2.5879 0-1.041-.2399-1.8793-.7197-2.5156-.4791-.6363-1.108-.954-1.8848-.9541Zm-.0341 1.3203c.4176 0 .7465.1962.9873.5879.2407.3926.3613.9419.3613 1.6474 0 .6765-.1247 1.2057-.372 1.5869-.2477.3813-.5839.5723-1.0069.5723-.41-.0001-.7423-.1953-.9951-.5879-.2528-.3918-.379-.9253-.379-1.5996.0001-.6643.1262-1.1983.379-1.6016.2528-.4031.5957-.6053 1.0254-.6054Zm13.3222-3.6074c.2499 0 .6924.3407.6924.8154l-5.9482 4.0107c-.0364.0114-.1159.0106-.1524 0l-1.3818-.8711v-3.955h6.79Z" />
  </symbol>

  <symbol id="refresh" fill="currentColor" viewBox="0 0 24 24">
    <path fill-rule="evenodd" d="M2 12C2 6.4771 6.4771 2 12 2s10 4.4771 10 10-4.4771 10-10 10S2 17.5229 2 12Zm9.9886-3.9535c-2.127 0-3.7587 1.4253-3.9464 3.1009a.6977.6977 0 1 1-1.3866-.1553c.2802-2.5028 2.6244-4.341 5.333-4.341 1.5535 0 2.9754.5989 3.9652 1.5786V7.814a.6976.6976 0 1 1 1.3953 0v1.509c0 .6936-.5622 1.2558-1.2558 1.2558h-1.7732a.6977.6977 0 0 1 0-1.3953h.6123c-.7168-.6889-1.7587-1.137-2.9438-1.137Zm.0228 7.907c1.996 0 3.7374-1.7003 3.9448-4.0157a.6977.6977 0 0 1 1.3898.1244c-.2604 2.9077-2.495 5.2866-5.3346 5.2866-1.5894 0-2.9942-.7507-3.9652-1.9184v.663a.6977.6977 0 0 1-1.3953 0v-2.0259c0-.6935.5622-1.2558 1.2558-1.2558h1.7732a.6977.6977 0 0 1 0 1.3954h-.8122c.7359 1.0779 1.8859 1.7464 3.1437 1.7464Z" clip-rule="evenodd" />
  </symbol>

  <symbol id="user" fill="currentColor" viewBox="0 0 24 24">
    <path d="M8.2143 6.2857a4.2857 4.2857 0 1 1 8.5713 0 4.2857 4.2857 0 0 1-8.5713 0ZM4.6438 19.719A7.8573 7.8573 0 0 1 12.5 11.9842a7.857 7.857 0 0 1 7.8562 7.7348.7144.7144 0 0 1-.4162.6619A17.7928 17.7928 0 0 1 12.5 22c-2.6533 0-5.1743-.5791-7.44-1.6191a.7144.7144 0 0 1-.4162-.6619Z" />
  </symbol>

  <symbol id="warning" fill="currentColor" viewBox="0 0 24 24">
    <path fill-rule="evenodd" d="M9.4911 4.3989c1.115-1.9307 3.9029-1.9307 5.0169 0l7.1001 12.3062c1.1141 1.9307-.2799 4.344-2.5089 4.344H4.9c-2.229 0-3.622-2.4133-2.508-4.344L9.4902 4.3989h.001Zm2.509 5.0651a.724.724 0 0 1 .724.724v3.6201a.7237.7237 0 0 1-.724.724.7241.7241 0 0 1-.724-.724V10.188a.7238.7238 0 0 1 .724-.724Zm0 7.9641a.7238.7238 0 0 0 .5119-1.2359.724.724 0 1 0-.5119 1.2359Z" clip-rule="evenodd" />
  </symbol>

  <symbol id="wave" fill="currentColor" viewBox="0 0 24 24">
    <path d="M10.6743 2.6567c.5862-.3352 1.3333-.1318 1.6687.4543a.2113.2113 0 0 0 .0165.024l5.4328 6.9434.0011.0016 1.3578 1.7033a.202.202 0 0 0 .3381-.035l1.9748-3.937a.1973.1973 0 0 0 .0138-.0355.076.076 0 0 1 .0099-.0233.0177.0177 0 0 1 .0019-.0023c.0016-.0009.0153-.0078.0509-.0044.0802.0079.2096.0616.3573.1781.2905.2292.5671.6334.6021 1.0852l-.0012.0378-.0059.1442a325.0066 325.0066 0 0 1-.0965 2.2498c-.0619 1.3283-.1431 2.8641-.2203 3.7137a7.7133 7.7133 0 0 1-2.5607 4.8377c-2.4645 2.1478-5.9826 2.261-8.0999-.1651l-2.5264-3.1828-3.1813-4.1652-.0177-.0201-.0556-.0595a1.2188 1.2188 0 0 1-.0981-.1289l-.0426-.0689c-.3353-.5862-.1319-1.3333.4543-1.6687.4378-.2503.9653-.2004 1.344.0851l2.4382 3.1932.0024.0027 1.0847 1.3669a.2022.2022 0 0 0 .2821.0339.2023.2023 0 0 0 .0576-.2471l-.0213-.0347-3.1762-4.1584a1.622 1.622 0 0 0-.3782-.4417L5.498 7.474l-.0177-.0201-.0552-.0595a1.2246 1.2246 0 0 1-.0985-.1285l-.0426-.0693-.0295-.0552c-.2925-.5771-.0841-1.2886.4838-1.6135.568-.3248 1.2871-.1442 1.6364.4003l.0323.054.024.0331a.2005.2005 0 0 0 .0824.0552l5.1672 6.6967.0279.0296a.2022.2022 0 0 0 .3133-.2416l-.0217-.0346-5.9197-7.672-.017-.0193-.0555-.059a1.2265 1.2265 0 0 1-.0981-.129l-.0426-.0689c-.3353-.5862-.132-1.3333.4543-1.6687.5862-.3352 1.3333-.1318 1.6687.4543a.2062.2062 0 0 0 .0146.0217l.8534 1.1245c.0038.007.0075.0148.0114.0217.0688.1202.1531.231.2498.3298l.8846 1.158 3.415 4.4993a.2018.2018 0 0 0 .2825.039.2025.2025 0 0 0 .0603-.2478l-.0213-.0347-2.5919-3.4216-.0004-.0004-.881-1.1537-1.069-1.4086c-.3038-.5798-.0969-1.3008.476-1.6285ZM2.9035 14.8374a.4036.4036 0 0 1 .4034.4035c0 2.0374 1.3317 3.582 2.8823 3.6766l.151.0047.0409.0019a.404.404 0 0 1 .3625.4016.4039.4039 0 0 1-.3625.4015l-.041.0019-.2033-.0059C4.0533 19.5993 2.5 17.578 2.5 15.2409a.4036.4036 0 0 1 .4035-.4035Zm1.8605.1757a.4036.4036 0 0 1 .4035.4035c0 .8531.5506 1.4327 1.1174 1.4681l.0552.0016.041.0023a.4037.4037 0 0 1 .3625.4012.404.404 0 0 1-.3625.4015l-.041.0019-.1076-.0031c-1.0996-.0649-1.872-1.1206-1.872-2.2735a.4035.4035 0 0 1 .4035-.4035ZM16.7406 2.375c2.1847 0 3.8401 2.0758 3.8401 4.4882a.4035.4035 0 0 1-.8069 0c0-2.103-1.4192-3.6812-3.0332-3.6813a.4035.4035 0 0 1 0-.807Zm0 2.0359c1.1563 0 1.9795 1.0866 1.9796 2.2766a.4035.4035 0 0 1-.807 0c0-.8806-.587-1.4696-1.1726-1.4697a.4034.4034 0 0 1 0-.807Z" />
  </symbol>

  <symbol id="question-circle" fill="currentColor" viewBox="0 0 24 24">
    <path fill="#000" d="M12.25 2.5c5.3848 0 9.75 4.36522 9.75 9.75 0 5.3848-4.3652 9.75-9.75 9.75-5.38478 0-9.75-4.3652-9.75-9.75 0-5.38478 4.36522-9.75 9.75-9.75Zm0 13.0957c-.1479 0-.2899.0595-.3945.1641-.1045.1045-.1631.2467-.1631.3945a.55774.55774 0 0 0 .1631.3936c.1046.1045.2466.164.3945.164s.2899-.0595.3945-.164a.55774.55774 0 0 0 .1631-.3936c0-.1478-.0586-.29-.1631-.3945-.1046-.1046-.2466-.1641-.3945-.1641Zm1.9443-7.09765c-1.0811-.94585-2.8075-.94585-3.8886 0a.55796.55796 0 0 0-.1895.38281.55862.55862 0 0 0 .1367.4043c.0974.11129.2353.17962.3828.18945.1477.00983.293-.04027.4043-.1377.6611-.57764 1.7592-.57772 2.4209 0 .6171.54053.617 1.38129 0 1.92189-.1129.0981-.2388.1807-.374.2461-.606.2937-1.3944.9094-1.3945 1.8603v.5577c0 .1478.0586.2899.1631.3945.1046.1046.2466.1631.3945.1631s.2899-.0585.3945-.1631c.1045-.1046.1631-.2467.1631-.3945v-.5577c.0001-.281.2621-.6126.7647-.8564a2.7867 2.7867 0 0 0 .622-.4102c1.1251-.9845 1.1251-2.61604 0-3.60055Z" />
  </symbol>
</svg>
