<svg xmlns="http://www.w3.org/2000/svg">
  <symbol id="cross" fill="currentColor" viewBox="0 0 24 24">
    <path fill-rule="evenodd" d="M6.228 6.2275a.75.75 0 0 1 1.0606 0l4.7123 4.7123 4.7123-4.7123a.75.75 0 0 1 1.0607 1.0606l-4.7123 4.7124 4.7123 4.7122a.75.75 0 0 1-1.0607 1.0607l-4.7123-4.7123-4.7123 4.7123a.75.75 0 1 1-1.0606-1.0607l4.7123-4.7122L6.228 7.2881a.75.75 0 0 1 0-1.0606Z" clip-rule="evenodd" />
  </symbol>

  <symbol id="pencil" fill="currentColor" viewBox="0 0 24 24">
    <path fill-rule="evenodd" d="M18.1413 4.702c-.4882-.4881-1.2797-.4881-1.7679 0l-.9496.9497 3.182 3.182.9497-.9497s-.0001 0 0 0c.4881-.4881.4881-1.2796 0-1.7678l-1.4142-1.4141Zm-.5962 5.1923-3.1819-3.182-9.0854 9.0853c0 .0001 0 0 0 0a1.2502 1.2502 0 0 0-.3612.7739l-.2421 2.7405a.25.25 0 0 0 .271.271l2.7404-.2421a1.2505 1.2505 0 0 0 .7739-.3612l9.0853-9.0854Zm-2.2323-6.253c1.0739-1.0738 2.8151-1.0739 3.8891 0l1.4142 1.4143c1.0739 1.074 1.0739 2.8151 0 3.889L9.5205 20.0405a2.7505 2.7505 0 0 1-1.7026.7947l-2.7404.2421c-1.085.0959-1.993-.8122-1.8972-1.8972l.242-2.7405a2.7502 2.7502 0 0 1 .7948-1.7025L15.3128 3.6414Z" clip-rule="evenodd" />
  </symbol>

  <symbol id="warning" fill="currentColor" viewBox="0 0 24 24">
    <path fill-rule="evenodd" d="M13.084 4.39a1.25 1.25 0 0 0-2.168 0l-.65-.375.65.374-8.042 13.988-.649-.373.649.373a1.25 1.25 0 0 0 1.083 1.873h16.086a1.25 1.25 0 0 0 1.084-1.873L13.084 4.389l.65-.374-.65.374Zm-3.468-.75c1.058-1.839 3.71-1.839 4.768 0l8.043 13.988c1.054 1.833-.27 4.12-2.384 4.12H3.957c-2.115 0-3.438-2.287-2.384-4.12L9.616 3.641ZM12 8.25a.75.75 0 0 1 .75.75v4a.75.75 0 0 1-1.5 0V9a.75.75 0 0 1 .75-.75Zm.567 9.25a.75.75 0 1 0-1.114-1.003l-.01.011a.75.75 0 1 0 1.114 1.004l.01-.011Z" clip-rule="evenodd" />
  </symbol>

  <symbol id="chevron-down" fill="currentColor" viewBox="0 0 24 24">
    <path fill-rule="evenodd" d="M5.4697 8.4697a.75.75 0 0 1 1.0606 0L12 13.9393l5.4697-5.4696a.75.75 0 0 1 1.0606 1.0607l-6 5.9999a.75.75 0 0 1-1.0606 0l-6-6a.75.75 0 0 1 0-1.0606Z" clip-rule="evenodd" />
  </symbol>
</svg>