<svg xmlns="http://www.w3.org/2000/svg">
  <symbol id="apple" fill="currentColor" viewBox="0 0 24 24">
    <path d="M12.152 6.896c-.948 0-2.415-1.078-3.96-1.04-2.04.027-3.91 1.183-4.961 3.014-2.117 3.675-.546 9.103 1.519 12.09 1.013 1.454 2.208 3.09 3.792 3.039 1.52-.065 2.09-.987 3.935-.987 1.831 0 2.35.987 3.96.948 1.637-.026 2.676-1.48 3.676-2.948 1.156-1.688 1.636-3.325 1.662-3.415-.039-.013-3.182-1.221-3.22-4.857-.026-3.04 2.48-4.494 2.597-4.559-1.429-2.09-3.623-2.324-4.39-2.376-2-.156-3.675 1.09-4.61 1.09zM15.53 3.83c.843-1.012 1.4-2.427 1.245-3.83-1.207.052-2.662.805-3.532 1.818-.78.896-1.454 2.338-1.273 3.714 1.338.104 2.715-.688 3.559-1.701" />
  </symbol>

  <symbol id="google" fill="currentColor" viewBox="0 0 24 24">
    <path d="M18.316 5.684H24v12.632h-5.684V5.684zM5.684 24h12.632v-5.684H5.684V24zM18.316 5.684V0H1.895A1.894 1.894 0 000 1.895v16.421h5.684V5.684h12.632zm-7.207 6.25v-.065c.272-.144.5-.349.687-.617s.279-.595.279-.982c0-.379-.099-.72-.3-1.025a2.05 2.05 0 00-.832-.714 2.703 2.703 0 00-1.197-.257c-.6 0-1.094.156-1.481.467-.386.311-.65.671-.793 1.078l1.085.452c.086-.249.224-.461.413-.633.189-.172.445-.257.767-.257.33 0 .602.088.816.264a.86.86 0 01.322.703c0 .33-.12.589-.36.778-.24.19-.535.284-.886.284h-.567v1.085h.633c.407 0 .748.109 1.02.327.272.218.407.499.407.843 0 .336-.129.614-.387.832s-.565.327-.924.327c-.351 0-.651-.103-.897-.311-.248-.208-.422-.502-.521-.881l-1.096.452c.178.616.505 1.082.977 1.401.472.319.984.478 1.538.477a2.84 2.84 0 001.293-.291c.382-.193.684-.458.902-.794.218-.336.327-.72.327-1.149 0-.429-.115-.797-.344-1.105a2.067 2.067 0 00-.881-.689zm2.093-1.931l.602.913L15 10.045v5.744h1.187V8.446h-.827l-2.158 1.557zM22.105 0h-3.289v5.184H24V1.895A1.894 1.894 0 0022.105 0zm-3.289 23.5l4.684-4.684h-4.684V23.5zM0 22.105C0 23.152.848 24 1.895 24h3.289v-5.184H0v3.289z" />
  </symbol>

  <symbol id="ms-office" fill="currentColor" viewBox="0 0 24 24">
    <path d="M0 0v11.408h11.408V0zm12.594 0v11.408H24V0zM0 12.594V24h11.408V12.594zm12.594 0V24H24V12.594z" />
  </symbol>

  <symbol id="outlook" fill="currentColor" viewBox="0 0 24 24">
    <path d="M7.88 12.04q0 .45-.11.87-.1.41-.33.74-.22.33-.58.52-.37.2-.87.2t-.85-.2q-.35-.21-.57-.55-.22-.33-.33-.75-.1-.42-.1-.86t.1-.87q.1-.43.34-.76.22-.34.59-.54.36-.2.87-.2t.86.2q.35.21.57.55.22.34.31.77.1.43.1.88zM24 12v9.38q0 .46-.33.8-.33.32-.8.32H7.13q-.46 0-.8-.33-.32-.33-.32-.8V18H1q-.41 0-.7-.3-.3-.29-.3-.7V7q0-.41.3-.7Q.58 6 1 6h6.5V2.55q0-.44.3-.75.3-.3.75-.3h12.9q.44 0 .75.3.3.3.3.75v8.3l1.24.72h.01q.1.07.18.18.07.12.07.25zm-6-8.25v3h3v-3zm0 4.5v3h3v-3zm0 4.5v1.83l3.05-1.83zm-5.25-9v3h3.75v-3zm0 4.5v3h3.75v-3zm0 4.5v2.03l2.41 1.5 1.34-.8v-2.73zM9 3.75V6h2l.13.01.12.04v-2.3zM5.98 15.98q.9 0 1.6-.3.7-.32 1.19-.86.48-.55.73-1.28.25-.74.25-1.61 0-.83-.25-1.55-.24-.71-.71-1.24t-1.15-.83q-.68-.3-1.55-.3-.92 0-1.64.3-.71.3-1.2.85-.5.54-.75 1.3-.25.74-.25 1.63 0 .85.26 1.56.26.72.74 1.23.48.52 1.17.81.69.3 1.56.3zM7.5 21h12.39L12 16.08V17q0 .41-.3.7-.29.3-.7.3H7.5zm15-.13v-7.24l-5.9 3.54z" />
  </symbol>

  <symbol id="cross" fill="currentColor" viewBox="0 0 24 24">
    <path d="M6.228 6.2275a.75.75 0 0 1 1.0606 0l4.7123 4.7123 4.7123-4.7123a.75.75 0 0 1 1.0607 1.0606l-4.7123 4.7124 4.7123 4.7122a.75.75 0 0 1-1.0607 1.0607l-4.7123-4.7123-4.7123 4.7123a.75.75 0 1 1-1.0606-1.0607l4.7123-4.7122L6.228 7.2881a.75.75 0 0 1 0-1.0606Z" />
  </symbol>

  <symbol id="pencil" fill="currentColor" viewBox="0 0 24 24">
    <path d="M18.1413 4.702c-.4882-.4881-1.2797-.4881-1.7679 0l-.9496.9497 3.182 3.182.9497-.9497s-.0001 0 0 0c.4881-.4881.4881-1.2796 0-1.7678l-1.4142-1.4141Zm-.5962 5.1923-3.1819-3.182-9.0854 9.0853c0 .0001 0 0 0 0a1.2502 1.2502 0 0 0-.3612.7739l-.2421 2.7405a.25.25 0 0 0 .271.271l2.7404-.2421a1.2505 1.2505 0 0 0 .7739-.3612l9.0853-9.0854Zm-2.2323-6.253c1.0739-1.0738 2.8151-1.0739 3.8891 0l1.4142 1.4143c1.0739 1.074 1.0739 2.8151 0 3.889L9.5205 20.0405a2.7505 2.7505 0 0 1-1.7026.7947l-2.7404.2421c-1.085.0959-1.993-.8122-1.8972-1.8972l.242-2.7405a2.7502 2.7502 0 0 1 .7948-1.7025L15.3128 3.6414Z" />
  </symbol>

  <symbol id="warning" fill="currentColor" viewBox="0 0 24 24">
    <path d="M13.084 4.39a1.25 1.25 0 0 0-2.168 0l-.65-.375.65.374-8.042 13.988-.649-.373.649.373a1.25 1.25 0 0 0 1.083 1.873h16.086a1.25 1.25 0 0 0 1.084-1.873L13.084 4.389l.65-.374-.65.374Zm-3.468-.75c1.058-1.839 3.71-1.839 4.768 0l8.043 13.988c1.054 1.833-.27 4.12-2.384 4.12H3.957c-2.115 0-3.438-2.287-2.384-4.12L9.616 3.641ZM12 8.25a.75.75 0 0 1 .75.75v4a.75.75 0 0 1-1.5 0V9a.75.75 0 0 1 .75-.75Zm.567 9.25a.75.75 0 1 0-1.114-1.003l-.01.011a.75.75 0 1 0 1.114 1.004l.01-.011Z" />
  </symbol>

  <symbol id="chevron-down" fill="currentColor" viewBox="0 0 24 24">
    <path d="M5.4697 8.4697a.75.75 0 0 1 1.0606 0L12 13.9393l5.4697-5.4696a.75.75 0 0 1 1.0606 1.0607l-6 5.9999a.75.75 0 0 1-1.0606 0l-6-6a.75.75 0 0 1 0-1.0606Z" />
  </symbol>

  <symbol id="list" fill="currentColor" viewBox="0 0 24 24">
    <path d="M3.5078 17.4424a.7497.7497 0 0 1 1.0595 1.0585l-.0097.0108c-.2773.3077-.7519.3328-1.0596.0557-.3076-.2773-.3328-.7519-.0557-1.0596l.0655-.0654ZM20 17.25a.75.75 0 0 1 0 1.5H8a.7502.7502 0 0 1-.75-.75.7502.7502 0 0 1 .75-.75h12ZM3.5078 11.4423a.7498.7498 0 0 1 1.0595 1.0586l-.0097.0108c-.2773.3076-.7519.3328-1.0596.0556-.3076-.2772-.3328-.7518-.0557-1.0595l.0655-.0655ZM20 11.25a.75.75 0 0 1 0 1.5H8a.7502.7502 0 0 1-.75-.75.7502.7502 0 0 1 .75-.75h12ZM3.4521 5.497a.7507.7507 0 0 1 1.0596-.0556.7504.7504 0 0 1 .0556 1.0595l-.0097.0108a.7505.7505 0 0 1-1.0596.0556.75.75 0 0 1-.0557-1.0586l.0098-.0117ZM20 5.25a.7501.7501 0 0 1 0 1.5H8A.7501.7501 0 0 1 7.25 6c0-.4141.3359-.75.75-.75h12Z" />
  </symbol>

  <symbol id="clipboard-check" fill="currentColor" viewBox="0 0 24 24">
    <path d="M22.0264 16.918a.7503.7503 0 0 1 1.0039.0517.7503.7503 0 0 1 .0517 1.0039l-.0517.0567-5 5a.7503.7503 0 0 1-1.0039.0517l-.0567-.0517-2-2-.0517-.0567a.7503.7503 0 0 1 .0517-1.0039.7503.7503 0 0 1 1.0039-.0517l.0567.0517L17.5 21.4395l4.4697-4.4698.0567-.0517ZM12 .25c1.3261 0 2.2378.5045 2.8252 1.1973.5157.6083.7367 1.3113.8359 1.8027H18c1.5188 0 2.75 1.2312 2.75 2.75v9a.75.75 0 0 1-1.5 0V6c0-.6904-.5596-1.25-1.25-1.25h-1.25v1.6504c-.0002.7452-.6043 1.3494-1.3496 1.3496H8.5996c-.7453-.0002-1.3494-.6043-1.3496-1.3496V4.75H6c-.6904 0-1.25.5596-1.25 1.25v14c0 .6904.5596 1.25 1.25 1.25h6a.75.75 0 0 1 0 1.5H6c-1.5188 0-2.75-1.2312-2.75-2.75V6c0-1.5188 1.2312-2.75 2.75-2.75h2.3379c.0992-.4914.3211-1.1943.8369-1.8027C9.7622.7545 10.6739.25 12 .25Zm0 1.5c-.8997 0-1.3883.321-1.6816.667-.2394.2824-.3813.6224-.464.9268l-.0644.289c-.087.4993-.4748.981-1.04 1.0928V6.25h6.5V4.7256c-.5249-.1038-.8975-.5266-1.0176-.9863l-.0224-.1065c-.0628-.3606-.2093-.8394-.5284-1.2158-.2933-.346-.7819-.667-1.6816-.667Z" />
  </symbol>

  <symbol id="calendar-plus" fill="currentColor" viewBox="0 0 24 24">
    <path d="M18.9922 15.25a.75.75 0 0 1 .75.75v2.25H22l.0771.0039a.75.75 0 0 1 0 1.4922L22 19.75h-2.2578V22a.75.75 0 0 1-1.5 0v-2.25h-2.25a.75.75 0 0 1 0-1.5h2.25V16a.75.75 0 0 1 .75-.75ZM7 1.25a.75.75 0 0 1 .75.75v4a.75.75 0 0 1-1.5 0V4.75H5c-.6904 0-1.25.5596-1.25 1.25v3.25h16.5V6c0-.6904-.5596-1.25-1.25-1.25h-.5a.75.75 0 0 1 0-1.5h.5c1.5188 0 2.75 1.2312 2.75 2.75v7a.75.75 0 0 1-1.5 0v-2.25H3.75V19c0 .6904.5596 1.25 1.25 1.25h8a.75.75 0 0 1 0 1.5H5c-1.5188 0-2.75-1.2312-2.75-2.75V6c0-1.5188 1.2312-2.75 2.75-2.75h1.25V2A.75.75 0 0 1 7 1.25Zm8 0a.75.75 0 0 1 .75.75v4a.75.75 0 0 1-1.5 0V4.75H10.5a.75.75 0 0 1 0-1.5h3.75V2a.75.75 0 0 1 .75-.75Z" />
  </symbol>

  <symbol id="refresh" fill="currentColor" viewBox="0 0 24 24">
    <path d="M22.0742 12.2539c.412.0411.7138.4083.6729.8203l-.0625.5059C21.92 18.7682 17.45 22.7498 12.0498 22.75c-3.9378 0-7.3778-2.1185-9.25-5.2744V21c0 .4141-.336.7497-.75.75-.4142 0-.751-.3358-.751-.75v-4.4004c.0002-.7453.6054-1.3494 1.3506-1.3496h4.4004c.414.0003.75.3359.75.75s-.336.7497-.75.75H4.1113c1.6171 2.6964 4.5677 4.5 7.9385 4.5 4.7958-.0002 8.7401-3.6509 9.2041-8.3242l.0117-.0762a.75.75 0 0 1 .8086-.5957ZM12 1.25c3.937.0002 7.3776 2.1175 9.25 5.2725V3a.75.75 0 0 1 1.5 0v4.4004c-.0002.7452-.6043 1.3494-1.3496 1.3496H17a.75.75 0 0 1 0-1.5h2.9385C18.3213 4.5536 15.3707 2.7502 12 2.75c-4.6458.0002-8.4925 3.426-9.1504 7.8887l-.0537.4355a.7498.7498 0 1 1-1.4922-.1484l.0625-.5059C2.1308 5.2319 6.5998 1.2502 12 1.25Z" />
  </symbol>

  <symbol id="eye-closed" fill="currentColor" viewBox="0 0 24 24">
    <path d="M3.684 7.692a.75.75 0 0 0-1.368.616c.867 1.925 2.124 3.419 3.596 4.481l-2.018 2.77a.75.75 0 0 0 1.212.883l2.087-2.864a10.407 10.407 0 0 0 4.057 1.145V17.5a.75.75 0 0 0 1.5 0v-2.777c1.4-.1 2.782-.482 4.057-1.144l2.087 2.863a.75.75 0 0 0 1.212-.884l-2.018-2.768c1.473-1.063 2.73-2.557 3.596-4.482a.75.75 0 1 0-1.368-.616c-3.334 7.41-13.297 7.41-16.632 0Z" />
  </symbol>
  <symbol id="user" fill="currentColor" viewBox="0 0 24 24">
    <path d="M12 11.9902a8.25 8.25 0 0 1 8.249 8.1153.7505.7505 0 0 1-.4375.6943A18.6822 18.6822 0 0 1 12 22.499v.001c-2.786 0-5.4325-.6082-7.8115-1.7002a.7512.7512 0 0 1-.4375-.6943A8.2505 8.2505 0 0 1 12 11.9902Zm0 1.5a6.7507 6.7507 0 0 0-4.7334 1.9385 6.7492 6.7492 0 0 0-1.9883 4.2119C7.3433 20.5155 9.6143 21 12 21h.001a17.1835 17.1835 0 0 0 6.7197-1.3594 6.748 6.748 0 0 0-1.9873-4.2119A6.7502 6.7502 0 0 0 12 13.4902ZM12 1.5a4.4998 4.4998 0 0 1 3.1816 1.3184A4.4996 4.4996 0 0 1 16.5 6a4.4996 4.4996 0 0 1-1.3184 3.1816A4.4998 4.4998 0 0 1 12 10.5a4.4999 4.4999 0 0 1-3.1816-1.3184A4.4998 4.4998 0 0 1 7.5 6a4.4998 4.4998 0 0 1 1.3184-3.1816A4.4999 4.4999 0 0 1 12 1.5ZM12 3a3 3 0 0 0-2.1211.879A2.9999 2.9999 0 0 0 8.9999 6c0 .7956.3164 1.5585.879 2.121A3 3 0 0 0 12 9a3 3 0 0 0 2.1211-.879A2.9997 2.9997 0 0 0 15 6a2.9997 2.9997 0 0 0-.8789-2.121A3 3 0 0 0 12 3Z" />
  </symbol>

  <symbol id="eye-open" fill="currentColor" viewBox="0 0 24 24">
    <path d="M3.684 13.308c3.335-7.41 13.298-7.41 16.632 0a.75.75 0 0 0 1.368-.616c-3.865-8.59-15.502-8.59-19.368 0a.75.75 0 1 0 1.368.616ZM9.75 14a2.25 2.25 0 1 1 4.5 0 2.25 2.25 0 0 1-4.5 0ZM12 10.25a3.75 3.75 0 1 0 0 7.5 3.75 3.75 0 0 0 0-7.5Z" />
  </symbol>

  <symbol id="email-in" fill="currentColor" viewBox="0 0 24 24">
    <path d="M16 4.25c1.5188 0 2.75 1.2312 2.75 2.75v2a.75.75 0 0 1-1.5 0V7c0-.6904-.5596-1.25-1.25-1.25H3c-.6904 0-1.25.5596-1.25 1.25v10c0 .6904.5596 1.25 1.25 1.25h14a.75.75 0 0 1 0 1.5H3C1.4812 19.75.25 18.5188.25 17V7C.25 5.4812 1.4812 4.25 3 4.25h13Zm3.4697 6.2197a.75.75 0 1 1 1.0606 1.0606L18.8105 13.25H23a.75.75 0 0 1 0 1.5h-4.1895l1.7198 1.7197.0517.0567a.7503.7503 0 0 1-.0517 1.0039.7503.7503 0 0 1-1.0039.0517l-.0567-.0517-3-3a.75.75 0 0 1 0-1.0606l3-3Zm-5.8193-2.1328a.7497.7497 0 0 1 .8271 1.2412l-.0615.046-4.5 2.9999a.7498.7498 0 0 1-.832 0l-4.5-3-.0615-.0459a.7497.7497 0 0 1 .8272-1.2412l.0663.039L9.5 11.0987l4.084-2.7226.0664-.039Z" />
  </symbol>

  <symbol id="check-circle" fill="currentColor" viewBox="0 0 24 24">
    <path d="M12 1.25c5.937 0 10.75 4.813 10.75 10.75S17.937 22.75 12 22.75 1.25 17.937 1.25 12 6.063 1.25 12 1.25Zm0 1.5c-5.1086 0-9.25 4.1414-9.25 9.25s4.1414 9.25 9.25 9.25 9.25-4.1414 9.25-9.25S17.1086 2.75 12 2.75Zm4.4697 5.2197a.75.75 0 0 1 1.0606 1.0606l-7 7a.7505.7505 0 0 1-1.004.0517l-.0566-.0517-3-3-.0517-.0567a.7504.7504 0 0 1 1.0556-1.0556l.0567.0517L10 14.4395l6.4697-6.4698Z" />
  </symbol>

  <symbol id="user" fill="currentColor" viewBox="0 0 24 24">
    <path d="M11 .25C16.937.25 21.75 5.063 21.75 11c0 2.585-.914 4.957-2.435 6.811l-.02.027A10.728 10.728 0 0 1 11 21.75c-3.34 0-6.323-1.523-8.295-3.912l-.02-.027A10.704 10.704 0 0 1 .25 11C.25 5.063 5.063.25 11 .25Zm0 15c-2.613 0-4.418.675-5.555 1.324a7.23 7.23 0 0 0-1.143.802A9.221 9.221 0 0 0 11 20.25a9.22 9.22 0 0 0 6.697-2.874 7.21 7.21 0 0 0-1.141-.802c-1.137-.65-2.943-1.324-5.556-1.324Zm0-13.5a9.25 9.25 0 0 0-7.643 14.46c.324-.276.768-.61 1.344-.939 1.353-.773 3.413-1.52 6.299-1.521 2.886 0 4.947.748 6.3 1.521a8.747 8.747 0 0 1 1.342.939A9.25 9.25 0 0 0 11 1.75Zm0 2.5a3.75 3.75 0 1 1 0 7.5 3.75 3.75 0 0 1 0-7.5Zm0 1.5a2.25 2.25 0 1 0 0 4.5 2.25 2.25 0 0 0 0-4.5Z" />
  </symbol>

  <symbol id="clock-rotate" fill="currentColor" viewBox="0 0 24 24">
    <path d="M12 1.25c5.2212 0 9.5716 3.7218 10.5459 8.6572l.084.4815.0078.0761a.7498.7498 0 0 1-.6377.7764.7497.7497 0 0 1-.8379-.5547l-.0156-.0752-.0723-.414C20.2358 5.9518 16.4913 2.75 12 2.75c-5.1086 0-9.25 4.1414-9.25 9.25s4.1414 9.25 9.25 9.25c3.3707 0 6.3204-1.8037 7.9375-4.5H17a.75.75 0 0 1 0-1.5h4.4004c.7453.0002 1.3494.6043 1.3496 1.3496V21a.75.75 0 0 1-1.5 0v-3.5234C19.3776 20.632 15.9373 22.75 12 22.75 6.063 22.75 1.25 17.937 1.25 12S6.063 1.25 12 1.25Zm0 4a.75.75 0 0 1 .75.75v5.25H18a.75.75 0 0 1 0 1.5h-6a.75.75 0 0 1-.75-.75V6a.75.75 0 0 1 .75-.75Z" />
  </symbol>

  <symbol id="calendar-check" fill="currentColor" viewBox="0 0 24 24">
    <path d="M21.5264 17.418a.7503.7503 0 0 1 1.0039.0517.7503.7503 0 0 1 .0517 1.0039l-.0517.0567-4 4a.75.75 0 0 1-1.0606 0l-2-2-.0517-.0567a.7503.7503 0 0 1 .0517-1.0039.7503.7503 0 0 1 1.0039-.0517l.0567.0517L18 20.9395l3.4697-3.4698.0567-.0517ZM7 1.25a.75.75 0 0 1 .75.75v4a.75.75 0 0 1-1.5 0V4.75H5c-.6904 0-1.25.5596-1.25 1.25v3.25h16.5V6c0-.6904-.5596-1.25-1.25-1.25h-.5a.75.75 0 0 1 0-1.5h.5c1.5188 0 2.75 1.2312 2.75 2.75v9a.75.75 0 0 1-1.5 0v-4.25H3.75V19c0 .6904.5596 1.25 1.25 1.25h8a.75.75 0 0 1 0 1.5H5c-1.5188 0-2.75-1.2312-2.75-2.75V6c0-1.5188 1.2312-2.75 2.75-2.75h1.25V2A.75.75 0 0 1 7 1.25Zm8 0a.75.75 0 0 1 .75.75v4a.75.75 0 0 1-1.5 0V4.75H10.5a.75.75 0 0 1 0-1.5h3.75V2a.75.75 0 0 1 .75-.75Z" />
  </symbol>

  <symbol id="calendar-check" fill="currentColor" viewBox="0 0 24 24">
    <path d="M21.5264 17.418a.7503.7503 0 0 1 1.0039.0517.7503.7503 0 0 1 .0517 1.0039l-.0517.0567-4 4a.75.75 0 0 1-1.0606 0l-2-2-.0517-.0567a.7503.7503 0 0 1 .0517-1.0039.7503.7503 0 0 1 1.0039-.0517l.0567.0517L18 20.9395l3.4697-3.4698.0567-.0517ZM7 1.25a.75.75 0 0 1 .75.75v4a.75.75 0 0 1-1.5 0V4.75H5c-.6904 0-1.25.5596-1.25 1.25v3.25h16.5V6c0-.6904-.5596-1.25-1.25-1.25h-.5a.75.75 0 0 1 0-1.5h.5c1.5188 0 2.75 1.2312 2.75 2.75v9a.75.75 0 0 1-1.5 0v-4.25H3.75V19c0 .6904.5596 1.25 1.25 1.25h8a.75.75 0 0 1 0 1.5H5c-1.5188 0-2.75-1.2312-2.75-2.75V6c0-1.5188 1.2312-2.75 2.75-2.75h1.25V2A.75.75 0 0 1 7 1.25Zm8 0a.75.75 0 0 1 .75.75v4a.75.75 0 0 1-1.5 0V4.75H10.5a.75.75 0 0 1 0-1.5h3.75V2a.75.75 0 0 1 .75-.75Z" />
  </symbol>

  <symbol id="wave" fill="currentColor" viewBox="0 0 24 24">
    <path d="M9.1045 2.2189c.4388-.2693.9642-.3604 1.4785-.2715l.2178.0469c.498.1367.9431.4387 1.2656.8486l3.8379 4.8819.0215-.1739.001-.0117.0342-.1602a2.1304 2.1304 0 0 1 .1757-.46l.1104-.1884c.1208-.1823.271-.345.4453-.4805l.1816-.126a2.0711 2.0711 0 0 1 .6065-.249l.2158-.039c.2178-.028.4396-.023.6572.0146l.2159.0488a2.388 2.388 0 0 1 .6074.2628l.1846.124c.1782.1317.339.287.4765.4619l.1299.1806a2.47 2.47 0 0 1 .2832.5987l.0576.2138c.0462.2126.0606.4312.0459.6475.0001.0041.0022.0086.002.0127-.0012.0168.0047.0471.0273.0762l1.3359 1.7031.1729.2295c.7859 1.092 1.2264 2.3868 1.252 3.6894v.2657l-.0147.2851.001.0049-.1797 2.4873c-.1075 1.4838-.763 2.8345-1.8477 3.7764l-.0048.0029-.2139.1748-.0039.0029-1.5459 1.2012c-1.4267 1.1075-3.2479 1.5802-5.0957 1.3535l-.3692-.0547c-1.847-.3198-3.5605-1.3162-4.8193-2.7773l-.2451-.2978-5.4092-6.8809c-.3684-.469-.5593-1.0599-.5166-1.6494l.0273-.2197c.0885-.5068.3529-.9663.7647-1.2862l.1328-.0957a2.054 2.054 0 0 1 .6944-.2871l-.6749-.8594h-.001a2.4806 2.4806 0 0 1-.3359-.5722l-.0771-.207a2.3341 2.3341 0 0 1-.1035-.8702l.0273-.2178a2.1393 2.1393 0 0 1 .21-.6191l.1103-.1894a2.0263 2.0263 0 0 1 .4453-.4795l.1807-.125a2.0642 2.0642 0 0 1 .6055-.249l.0976-.0186c-.1936-.3813-.2878-.8085-.2568-1.2364l.0273-.2197c.0887-.507.3537-.9682.7656-1.288l.1817-.125c.4386-.2691.9644-.3614 1.4785-.2725l.1953.043c.3497.093.6722.2693.9463.5048.1354-.294.339-.5557.6016-.7597l.1816-.126Zm1.2578.9795c-.2227-.0382-.4282.0056-.5888.1045l-.0655.0449c-.1471.1144-.2541.2884-.291.501l-.0117.0937c-.0161.225.046.4685.1836.6817l.0644.0908h.001l4.417 5.6181.0684.1094a.6358.6358 0 0 1-.1787.7852h-.001a.6415.6415 0 0 1-.8057-.0166l-.0888-.0928-5.4092-6.8789c-.1612-.205-.377-.3464-.6006-.4082L6.96 3.8097c-.2221-.0384-.4277.0044-.5889.1035l-.0674.046c-.1474.1147-.254.2882-.291.5l-.0117.0937c-.0186.258.0664.5396.25.7734l.9893 1.2588h-.001l3.9765 4.9404.0118.0157.0488.0732.0107.0185a.6354.6354 0 0 1-.0898.709l-.083.0782a.6414.6414 0 0 1-.8057-.0069c-.0058-.0048-.0123-.0101-.0176-.0156l-.0615-.0635c-.0039-.004-.0072-.0093-.0107-.0137L6.2432 7.382l-.003-.002-.0742-.0879-.1191-.1113a1.221 1.221 0 0 0-.1328-.0928v-.001a1.1017 1.1017 0 0 0-.2793-.12L5.54 6.9454a.9273.9273 0 0 0-.2754-.0069l-.085.0156a.777.777 0 0 0-.2285.0938l-.0664.0459a.7618.7618 0 0 0-.166.1787l-.042.0723a.8597.8597 0 0 0-.084.25l-.0108.0937c-.009.1268.0057.262.048.3955l.037.0996c.0411.0982.0961.192.1631.2774l4.9121 6.249.001.001.0684.1093a.6342.6342 0 0 1-.085.6944l-.0938.0898c-.2425.1882-.5802.1746-.8066-.0166l-.0908-.0927-2.9258-3.7227c-.161-.2048-.3768-.3454-.6006-.4072l-.0967-.0225c-.2552-.044-.488.0169-.6562.1475h.001c-.147.1141-.2541.2881-.291.5009l-.0118.0948c-.0185.2578.0665.5387.25.7724l5.4082 6.8809.21.2549c1.0752 1.248 2.5275 2.0849 4.0674 2.3515l.3066.0459c1.5314.1881 3.0088-.2071 4.1524-1.0947l1.5419-1.1963.1719-.1416.1494-.1367c.7296-.7022 1.1845-1.6774 1.2637-2.7715l.1807-2.4853.0097-.2383c.0261-1.1734-.3795-2.3751-1.1552-3.3623v-.001l-1.337-1.706v-.001c-.0022-.0027-.0058-.005-.0078-.0078l-.0625-.0899-.0039-.0058c-.1598-.2484-.2419-.5467-.2187-.8487a1.0668 1.0668 0 0 0-.0489-.3925l-.0371-.1006a1.207 1.207 0 0 0-.1005-.1895l-.0635-.0889a1.2109 1.2109 0 0 0-.2324-.2246l-.0879-.0595a1.1258 1.1258 0 0 0-.2823-.124l-.0947-.0206a.9184.9184 0 0 0-.2744-.0068l-.085.0156a.791.791 0 0 0-.2304.0947l-.0655.045a.7559.7559 0 0 0-.166.1787l-.042.0722c-.0516.0993-.0843.2156-.0937.3428l-.001.002c-.0627.8583.2147 1.7567.7871 2.4902l.0156.0234.962 1.2247.0019.0009c.0016.0017.0042.006.0078.0098l.0156.0176.001.0009.0615.0948a.6361.6361 0 0 1-.0156.6201l-.0635.0889c-.0047.0055-.0103.0106-.0156.0156l-.0664.0615-.001-.001c-.0047.0045-.0085.0107-.0136.0147a3.339 3.339 0 0 0-.8282.9414l-.0888.1611c-.198.3803-.3286.8027-.3828 1.2481l-.0186.1923c-.0005.0064-.0009.0133-.002.0196l-.0146.0869a.2037.2037 0 0 1-.0049.0205.6406.6406 0 0 1-.6601.4629v-.001c-.3503-.0245-.6187-.3267-.5938-.6787l.001-.0059.0254-.2451v-.0039l.0322-.2207c.0851-.5121.2473-1.0048.4844-1.4599l.0928-.17a4.6432 4.6432 0 0 1 .6953-.9238L11.0595 3.628c-.1839-.2337-.4396-.3841-.6973-.4287v-.001ZM1.5459 15.4972a.6412.6412 0 0 1 .5166.3447l.043.1016.0049.0225.0156.0869.003.0136.0302.2559h-.001c.3301 2.3311 2.0214 3.56 3.5488 4.0107l.3233.086.0146.0039.085.0293.0166.0068.0967.0537a.6363.6363 0 0 1 .2763.5557l-.0156.1123c-.0613.2624-.2777.4487-.5293.4863l-.1084.0059-.0224-.001-.088-.0117-.0233-.0049-.3721-.0967-.0059-.0009c-1.8673-.5498-4.0426-2.0934-4.461-5.0557l-.0009-.0039-.0361-.3008a.2041.2041 0 0 1-.001-.0254l.001-.0879.002-.0205.0204-.1074a.6404.6404 0 0 1 .5528-.459h.1142Zm1.8145-.0019a.6405.6405 0 0 1 .5635.4189l.0312.125.0527.2842c.3137 1.3664 1.3384 1.9431 1.8897 2.0928l.1142.0273.0078.0019.086.0245.0205.0078a.6353.6353 0 0 1 .3828.708v.001a.6403.6403 0 0 1-.6191.5166c-.0069 0-.0137-.0014-.0205-.002l-.088-.0078-.0263-.0039-.1719-.0391-.0068-.0029c-.9573-.2566-2.5662-1.2224-2.8858-3.4248v-.001c-.0498-.3483.1934-.6712.541-.7217l.129-.0048Zm11.1201-13.373.1699.0185.0059.001.1777.0302c.8957.1788 2.302.8153 2.874 2.3975l.0557.167.0019.0039.0508.1826.0049.0225.0147.0869.0019.0224a.6372.6372 0 0 1-.373.6094l-.1075.038a.64.64 0 0 1-.6748-.2421l-.0576-.0938c-.0029-.0058-.0055-.0133-.0078-.0195l-.0303-.082-.0039-.0108-.0791-.2548-.082-.1954c-.4418-.939-1.3698-1.317-1.9268-1.4003v.001l-.1279-.0147-.0137-.001-.0879-.0166c-.0062-.0011-.0124-.0031-.0185-.0049-.2849-.0817-.4845-.3537-.46-.6611l.0196-.1123c.0666-.2519.2822-.437.539-.4688l.0196-.001.0888-.0029.0264.001ZM14.7754.292l.3779.0537c1.8338.3234 3.6865 1.538 4.3702 3.9356l.0664.252.0009.0048.0567.2598.0039.0225.0088.0878.001.0215a.6365.6365 0 0 1-.4053.588l-.1094.0321a.6407.6407 0 0 1-.6621-.2783l-.0508-.0976c-.0027-.0064-.0058-.013-.0078-.0196l-.0254-.084-.0039-.0156-.0478-.2187-.001-.001c-.5168-2.1294-2.1356-3.1035-3.7129-3.2783a.203.203 0 0 1-.042-.0088c-.3277-.0584-.5605-.3582-.5225-.6943l.0264-.126a.6421.6421 0 0 1 .5498-.4375l.1289.002Z" />
  </symbol>

  <symbol id="building" fill="currentColor" viewBox="0 0 24 24">
    <path d="M19.5 2.25a.75.75 0 0 1 0 1.5v16.5h.75a.75.75 0 0 1 0 1.5H3.75a.75.75 0 0 1 0-1.5h.75V3.75a.75.75 0 0 1 0-1.5h15ZM6 20.25h2.25v-2.625c0-1.0352.8398-1.875 1.875-1.875h3.75c1.0352 0 1.875.8398 1.875 1.875v2.625H18V3.75H6v16.5Zm4.125-3a.3754.3754 0 0 0-.375.375v2.625h4.5v-2.625a.3754.3754 0 0 0-.375-.375h-3.75ZM10.5 12a.75.75 0 0 1 0 1.5H9A.75.75 0 0 1 9 12h1.5Zm4.5 0a.75.75 0 0 1 0 1.5h-1.5a.75.75 0 0 1 0-1.5H15Zm-4.5-3a.75.75 0 0 1 0 1.5H9A.75.75 0 0 1 9 9h1.5ZM15 9a.75.75 0 0 1 0 1.5h-1.5a.75.75 0 0 1 0-1.5H15Zm-4.5-3a.75.75 0 0 1 0 1.5H9A.75.75 0 0 1 9 6h1.5ZM15 6a.75.75 0 0 1 0 1.5h-1.5a.75.75 0 0 1 0-1.5H15Z" />
  </symbol>

  <symbol id="bell" fill="currentColor" viewBox="0 0 24 24">
    <path d="M12.5003 2.2498a6.7513 6.7513 0 0 1 4.7734 1.9766 6.7516 6.7516 0 0 1 1.9766 4.7734v.751a8.218 8.218 0 0 0 2.1182 5.5186.7506.7506 0 0 1-.2979 1.2061 24.607 24.607 0 0 1-4.831 1.2422 3.755 3.755 0 0 1-.0372.8779 3.7523 3.7523 0 0 1-.6728 1.6123 3.7527 3.7527 0 0 1-3.0293 1.5391 3.7514 3.7514 0 0 1-1.6992-.4073 3.749 3.749 0 0 1-1.3301-1.1318 3.7553 3.7553 0 0 1-.711-2.4893 24.59 24.59 0 0 1-4.1562-1.0049l-.6758-.2382a.75.75 0 0 1-.2959-1.2061 8.2185 8.2185 0 0 0 2.1182-5.5186v-.751a6.7522 6.7522 0 0 1 1.9775-4.7734 6.7508 6.7508 0 0 1 4.7725-1.9766Zm2.2471 15.6495a25.0065 25.0065 0 0 1-4.4952 0 2.253 2.253 0 0 0 .0274.457 2.2494 2.2494 0 0 0 4.0381.9668 2.2518 2.2518 0 0 0 .4043-.9668 2.2587 2.2587 0 0 0 .0254-.457ZM12.5003 3.7498a5.2503 5.2503 0 0 0-3.712 1.538 5.25 5.25 0 0 0-1.538 3.712v.749l-.0098.4512c-.0846 1.8774-.7143 3.6841-1.8008 5.2061a23.1262 23.1262 0 0 0 4.292.9307l.6905.0723a23.5091 23.5091 0 0 0 4.8466-.0723l.6758-.0899c1.2257-.1819 2.434-.465 3.6143-.8408a9.715 9.715 0 0 1-1.8086-5.6572v-.749a5.2503 5.2503 0 0 0-1.5381-3.712 5.2501 5.2501 0 0 0-3.7119-1.5381Zm6.207-1.3086a.7508.7508 0 0 1 1.0049.003l.0547.0546.2256.2608a9.7193 9.7193 0 0 1 2.0605 4.2773l.0625.3389.0098.0762a.75.75 0 0 1-1.4717.247l-.0166-.0752-.0537-.286a8.2197 8.2197 0 0 0-1.7422-3.6163l-.1914-.2207-.0478-.0596a.7505.7505 0 0 1 .1054-1Zm-13.4736.0576c.2766-.308.7513-.334 1.0596-.0576a.751.751 0 0 1 .0576 1.0596 8.2202 8.2202 0 0 0-1.9873 4.123.7496.7496 0 0 1-1.4785-.248 9.7212 9.7212 0 0 1 2.3486-4.877Z" />
  </symbol>

</svg>