<svg xmlns="http://www.w3.org/2000/svg" version="1.1" xmlns:xlink="http://www.w3.org/1999/xlink" width="1000" height="1000"><style>
    #light-icon {
      display: inline;
    }
    #dark-icon {
      display: none;
    }

    @media (prefers-color-scheme: dark) {
      #light-icon {
        display: none;
      }
      #dark-icon {
        display: inline;
      }
    }
  </style><g id="light-icon"><svg xmlns="http://www.w3.org/2000/svg" version="1.1" xmlns:xlink="http://www.w3.org/1999/xlink" width="1000" height="1000"><g><g transform="matrix(3.90625,0,0,3.90625,0,0)"><svg xmlns="http://www.w3.org/2000/svg" version="1.1" xmlns:xlink="http://www.w3.org/1999/xlink" width="256" height="256"><svg width="256" height="256" viewBox="0 0 256 256" fill="none" xmlns="http://www.w3.org/2000/svg">
<path d="M154.277 119.951C167.896 108.957 180.971 98.0543 195.101 88.0787C200.158 84.5098 205.504 80.7189 211.116 78.0838C213.693 76.8682 215.843 75.998 218.769 76.0455C221.99 76.0949 223.426 78.0279 223.072 81.2682C222.822 83.5754 221.724 85.7651 220.641 87.7745C217.338 93.9072 213.086 98.8931 208.51 104.048C197.719 116.2 186.357 127.496 174.666 138.755C169.426 143.801 164.651 147.864 157.513 155.244C157.513 155.244 161.404 152.881 162.462 152.216C175.836 143.82 188.653 135.226 202.581 127.781C208.371 124.688 214.553 121.668 221.073 120.389C222.624 120.083 224.282 120.035 225.82 120.477C228.046 121.118 228.331 122.506 227.72 124.756C227.221 126.593 226.245 128.174 225.174 129.718C221.042 135.658 216.033 140.688 210.826 145.626C192.329 163.166 172.73 179.098 152.536 194.576C151.782 195.155 150.68 196.001 149.498 196.125C148.975 193.742 148.733 192.688 148.107 190.642C147.218 187.714 146.286 184.658 145.501 181.701C143.431 173.928 140.595 166.556 136.49 159.612C130.121 148.83 124.152 137.884 116.467 127.961C115.316 126.477 114.167 124.986 112.771 123.746C111.894 122.967 110.61 121.463 109.154 122.005C108.016 122.454 108.289 125.703 108.504 127.243C109.269 132.69 111.45 137.271 113.481 142.304C115.285 146.79 117.244 151.209 119.128 155.661C119.548 156.653 120.147 158.529 120.147 159.524C120.147 159.524 110.601 145.706 105.826 139.22C102.273 134.391 98.6962 129.561 94.3655 125.386C93.3027 124.364 92.2874 123.112 91.0063 122.374C89.781 121.671 88.175 120.632 86.7112 121.347C85.0138 122.538 86.279 126.252 86.878 128.239C88.2816 132.895 90.7131 137.075 93.0292 141.298C96.245 147.166 99.6125 152.946 102.904 158.774C103.431 159.705 104.767 161.746 104.823 162.897C104.823 162.897 96.646 152.349 92.894 147.676C88.7023 142.461 84.76 137.118 79.9889 132.413C78.2325 130.681 76.638 128.807 74.485 127.604C73.2077 126.89 71.1734 125.807 69.6226 126.578C68.4328 127.364 69.5985 130.428 70.1581 131.965C71.3396 135.222 73.1721 138.25 74.9209 141.226C80.7148 151.093 87.3457 160.395 93.7507 169.848C94.4049 170.816 96.6181 174.04 97.094 175.256C97.0261 175.323 86.5646 164.538 82.2732 160.222C77.6253 155.549 73.3187 150.624 68.0286 146.665C66.4499 145.485 64.3001 143.889 62.413 143.263C60.9771 142.79 59.8705 142.782 58.5659 144.262C57.6382 145.361 59.5418 148.959 60.5564 150.864C63.1186 155.67 66.3192 160.05 69.6384 164.333C76.3962 173.046 83.2371 181.701 90.0666 190.361C91.3635 192.01 92.224 193.658 90.9784 195.692C89.4993 196.582 88.0678 196.182 86.6953 195.656C84.0461 194.641 81.4166 193.566 78.8036 192.459C75.4603 191.047 72.0896 189.716 68.488 189.15C63.8801 188.424 60.6363 190.125 59.1883 193.958C59.0538 194.312 58.9383 194.444 58.8317 195.191C75.7852 200.738 88.1427 213.617 104.792 220.849C102.67 221.98 99.9811 223.111 97.9227 223.416C88.734 224.776 79.7592 223.745 71.0902 220.488C57.9313 215.539 46.2122 207.777 36.9918 197.068C31.84 191.088 28.866 183.875 28.1838 175.945C27.3431 166.179 29.5005 156.873 32.328 147.684C36.111 135.386 41.3504 123.196 46.4856 111.439C54.0328 94.1639 61.6751 77.2129 67.5248 59.2517C69.0832 54.4628 71.1213 49.1797 72.5294 41.7557C78.5657 41.6351 84.7327 46.4766 86.6515 52.2968C88.1109 56.7128 87.5443 61.245 87.0164 65.8016C86.1801 73.0978 84.0982 79.8685 82.317 86.9556C81.4725 90.3056 79.4299 100.449 79.5651 102.419C79.7554 105.219 81.31 106.691 84.0982 106.417C86.2873 106.201 87.9567 105.655 89.5431 103.927C97.2482 95.5116 105.188 86.8715 112.953 78.5086C125.2 65.317 137.232 51.9079 150.534 39.7618C154.308 36.3161 157.692 32.9269 162.118 30.3278C163.212 29.6866 164.35 29.0879 165.524 28.6187C170.83 26.506 173.936 30.184 173.515 33.9178C173.245 36.2885 172.595 38.8761 171.679 41.0774C169.042 47.4033 165.322 53.4642 161.55 59.1272C153.012 71.9311 143.367 84.1684 134.107 96.4262C130.784 100.831 127.48 105.206 124.189 109.634C123.494 110.501 120.909 113.49 120.909 113.49C120.909 113.49 138.029 97.5095 145.925 90.1336C158.279 78.5965 170.739 67.0376 183.949 56.4876C188.173 53.1151 192.639 49.7894 197.326 47.094C199.369 45.9151 201.811 44.8356 204.14 44.3344C205.432 44.0578 206.773 43.9211 208.121 45.6981C209.584 47.8359 208.438 50.2624 207.8 52.662C206.951 55.8426 205.087 58.5464 203.37 61.3175C198.627 68.9706 193.182 75.4121 187.288 82.159C176.025 95.0541 164.089 107.309 152.191 119.599C150.002 121.96 148.332 123.139 146.175 126.369C149.713 123.461 152.905 121.09 154.277 119.951Z" fill="#5F4DD5"></path>
</svg></svg></g></g></svg></g><g id="dark-icon"><svg xmlns="http://www.w3.org/2000/svg" version="1.1" xmlns:xlink="http://www.w3.org/1999/xlink" width="1000" height="1000"><g><g transform="matrix(3.90625,0,0,3.90625,0,0)"><svg xmlns="http://www.w3.org/2000/svg" version="1.1" xmlns:xlink="http://www.w3.org/1999/xlink" width="256" height="256"><svg width="256" height="256" viewBox="0 0 256 256" fill="none" xmlns="http://www.w3.org/2000/svg">
<path d="M154.277 119.951C167.896 108.957 180.971 98.0543 195.101 88.0787C200.158 84.5098 205.504 80.7189 211.116 78.0838C213.693 76.8682 215.843 75.998 218.769 76.0455C221.99 76.0949 223.426 78.0279 223.072 81.2682C222.822 83.5754 221.724 85.7651 220.641 87.7745C217.338 93.9072 213.086 98.8931 208.51 104.048C197.719 116.2 186.357 127.496 174.666 138.755C169.426 143.801 164.651 147.864 157.513 155.244C157.513 155.244 161.404 152.881 162.462 152.216C175.836 143.82 188.653 135.226 202.581 127.781C208.371 124.688 214.553 121.668 221.073 120.389C222.624 120.083 224.282 120.035 225.82 120.477C228.046 121.118 228.331 122.506 227.72 124.756C227.221 126.593 226.245 128.174 225.174 129.718C221.042 135.658 216.033 140.688 210.826 145.626C192.329 163.166 172.73 179.098 152.536 194.576C151.782 195.155 150.68 196.001 149.498 196.125C148.975 193.742 148.733 192.688 148.107 190.642C147.218 187.714 146.286 184.658 145.501 181.701C143.431 173.928 140.595 166.556 136.49 159.612C130.121 148.83 124.152 137.884 116.467 127.961C115.316 126.477 114.167 124.986 112.771 123.746C111.894 122.967 110.61 121.463 109.154 122.005C108.016 122.454 108.289 125.703 108.504 127.243C109.269 132.69 111.45 137.271 113.481 142.304C115.285 146.79 117.244 151.209 119.128 155.661C119.548 156.653 120.147 158.529 120.147 159.524C120.147 159.524 110.601 145.706 105.826 139.22C102.273 134.391 98.6962 129.561 94.3655 125.386C93.3027 124.364 92.2874 123.112 91.0063 122.374C89.781 121.671 88.175 120.632 86.7112 121.347C85.0138 122.538 86.279 126.252 86.878 128.239C88.2816 132.895 90.7131 137.075 93.0292 141.298C96.245 147.166 99.6125 152.946 102.904 158.774C103.431 159.705 104.767 161.746 104.823 162.897C104.823 162.897 96.646 152.349 92.894 147.676C88.7023 142.461 84.76 137.118 79.9889 132.413C78.2325 130.681 76.638 128.807 74.485 127.604C73.2077 126.89 71.1734 125.807 69.6226 126.578C68.4328 127.364 69.5985 130.428 70.1581 131.965C71.3396 135.222 73.1721 138.25 74.9209 141.226C80.7148 151.093 87.3457 160.395 93.7507 169.848C94.4049 170.816 96.6181 174.04 97.094 175.256C97.0261 175.323 86.5646 164.538 82.2732 160.222C77.6253 155.549 73.3187 150.624 68.0286 146.665C66.4499 145.485 64.3001 143.889 62.413 143.263C60.9771 142.79 59.8705 142.782 58.5659 144.262C57.6382 145.361 59.5418 148.959 60.5564 150.864C63.1186 155.67 66.3192 160.05 69.6384 164.333C76.3962 173.046 83.2371 181.701 90.0666 190.361C91.3635 192.01 92.224 193.658 90.9784 195.692C89.4993 196.582 88.0678 196.182 86.6953 195.656C84.0461 194.641 81.4166 193.566 78.8036 192.459C75.4603 191.047 72.0896 189.716 68.488 189.15C63.8801 188.424 60.6363 190.125 59.1883 193.958C59.0538 194.312 58.9383 194.444 58.8317 195.191C75.7852 200.738 88.1427 213.617 104.792 220.849C102.67 221.98 99.9811 223.111 97.9227 223.416C88.734 224.776 79.7592 223.745 71.0902 220.488C57.9313 215.539 46.2122 207.777 36.9918 197.068C31.84 191.088 28.866 183.875 28.1838 175.945C27.3431 166.179 29.5005 156.873 32.328 147.684C36.111 135.386 41.3504 123.196 46.4856 111.439C54.0328 94.1639 61.6751 77.2129 67.5248 59.2517C69.0832 54.4628 71.1213 49.1797 72.5294 41.7557C78.5657 41.6351 84.7327 46.4766 86.6515 52.2968C88.1109 56.7128 87.5443 61.245 87.0164 65.8016C86.1801 73.0978 84.0982 79.8685 82.317 86.9556C81.4725 90.3056 79.4299 100.449 79.5651 102.419C79.7554 105.219 81.31 106.691 84.0982 106.417C86.2873 106.201 87.9567 105.655 89.5431 103.927C97.2482 95.5116 105.188 86.8715 112.953 78.5086C125.2 65.317 137.232 51.9079 150.534 39.7618C154.308 36.3161 157.692 32.9269 162.118 30.3278C163.212 29.6866 164.35 29.0879 165.524 28.6187C170.83 26.506 173.936 30.184 173.515 33.9178C173.245 36.2885 172.595 38.8761 171.679 41.0774C169.042 47.4033 165.322 53.4642 161.55 59.1272C153.012 71.9311 143.367 84.1684 134.107 96.4262C130.784 100.831 127.48 105.206 124.189 109.634C123.494 110.501 120.909 113.49 120.909 113.49C120.909 113.49 138.029 97.5095 145.925 90.1336C158.279 78.5965 170.739 67.0376 183.949 56.4876C188.173 53.1151 192.639 49.7894 197.326 47.094C199.369 45.9151 201.811 44.8356 204.14 44.3344C205.432 44.0578 206.773 43.9211 208.121 45.6981C209.584 47.8359 208.438 50.2624 207.8 52.662C206.951 55.8426 205.087 58.5464 203.37 61.3175C198.627 68.9706 193.182 75.4121 187.288 82.159C176.025 95.0541 164.089 107.309 152.191 119.599C150.002 121.96 148.332 123.139 146.175 126.369C149.713 123.461 152.905 121.09 154.277 119.951Z" fill="white"></path>
<path d="M154.277 119.951C167.896 108.957 180.971 98.0543 195.101 88.0787C200.158 84.5098 205.504 80.7189 211.116 78.0838C213.693 76.8682 215.843 75.998 218.769 76.0455C221.99 76.0949 223.426 78.0279 223.072 81.2682C222.822 83.5754 221.724 85.7651 220.641 87.7745C217.338 93.9072 213.086 98.8931 208.51 104.048C197.719 116.2 186.357 127.496 174.666 138.755C169.426 143.801 164.651 147.864 157.513 155.244C157.513 155.244 161.404 152.881 162.462 152.216C175.836 143.82 188.653 135.226 202.581 127.781C208.371 124.688 214.553 121.668 221.073 120.389C222.624 120.083 224.282 120.035 225.82 120.477C228.046 121.118 228.331 122.506 227.72 124.756C227.221 126.593 226.245 128.174 225.174 129.718C221.042 135.658 216.033 140.688 210.826 145.626C192.329 163.166 172.73 179.098 152.536 194.576C151.782 195.155 150.68 196.001 149.498 196.125C148.975 193.742 148.733 192.688 148.107 190.642C147.218 187.714 146.286 184.658 145.501 181.701C143.431 173.928 140.595 166.556 136.49 159.612C130.121 148.83 124.152 137.884 116.467 127.961C115.316 126.477 114.167 124.986 112.771 123.746C111.894 122.967 110.61 121.463 109.154 122.005C108.016 122.454 108.289 125.703 108.504 127.243C109.269 132.69 111.45 137.271 113.481 142.304C115.285 146.79 117.244 151.209 119.128 155.661C119.548 156.653 120.147 158.529 120.147 159.524C120.147 159.524 110.601 145.706 105.826 139.22C102.273 134.391 98.6962 129.561 94.3655 125.386C93.3027 124.364 92.2874 123.112 91.0063 122.374C89.781 121.671 88.175 120.632 86.7112 121.347C85.0138 122.538 86.279 126.252 86.878 128.239C88.2816 132.895 90.7131 137.075 93.0292 141.298C96.245 147.166 99.6125 152.946 102.904 158.774C103.431 159.705 104.767 161.746 104.823 162.897C104.823 162.897 96.646 152.349 92.894 147.676C88.7023 142.461 84.76 137.118 79.9889 132.413C78.2325 130.681 76.638 128.807 74.485 127.604C73.2077 126.89 71.1734 125.807 69.6226 126.578C68.4328 127.364 69.5985 130.428 70.1581 131.965C71.3396 135.222 73.1721 138.25 74.9209 141.226C80.7148 151.093 87.3457 160.395 93.7507 169.848C94.4049 170.816 96.6181 174.04 97.094 175.256C97.0261 175.323 86.5646 164.538 82.2732 160.222C77.6253 155.549 73.3187 150.624 68.0286 146.665C66.4499 145.485 64.3001 143.889 62.413 143.263C60.9771 142.79 59.8705 142.782 58.5659 144.262C57.6382 145.361 59.5418 148.959 60.5564 150.864C63.1186 155.67 66.3192 160.05 69.6384 164.333C76.3962 173.046 83.2371 181.701 90.0666 190.361C91.3635 192.01 92.224 193.658 90.9784 195.692C89.4993 196.582 88.0678 196.182 86.6953 195.656C84.0461 194.641 81.4166 193.566 78.8036 192.459C75.4603 191.047 72.0896 189.716 68.488 189.15C63.8801 188.424 60.6363 190.125 59.1883 193.958C59.0538 194.312 58.9383 194.444 58.8317 195.191C75.7852 200.738 88.1427 213.617 104.792 220.849C102.67 221.98 99.9811 223.111 97.9227 223.416C88.734 224.776 79.7592 223.745 71.0902 220.488C57.9313 215.539 46.2122 207.777 36.9918 197.068C31.84 191.088 28.866 183.875 28.1838 175.945C27.3431 166.179 29.5005 156.873 32.328 147.684C36.111 135.386 41.3504 123.196 46.4856 111.439C54.0328 94.1639 61.6751 77.2129 67.5248 59.2517C69.0832 54.4628 71.1213 49.1797 72.5294 41.7557C78.5657 41.6351 84.7327 46.4766 86.6515 52.2968C88.1109 56.7128 87.5443 61.245 87.0164 65.8016C86.1801 73.0978 84.0982 79.8685 82.317 86.9556C81.4725 90.3056 79.4299 100.449 79.5651 102.419C79.7554 105.219 81.31 106.691 84.0982 106.417C86.2873 106.201 87.9567 105.655 89.5431 103.927C97.2482 95.5116 105.188 86.8715 112.953 78.5086C125.2 65.317 137.232 51.9079 150.534 39.7618C154.308 36.3161 157.692 32.9269 162.118 30.3278C163.212 29.6866 164.35 29.0879 165.524 28.6187C170.83 26.506 173.936 30.184 173.515 33.9178C173.245 36.2885 172.595 38.8761 171.679 41.0774C169.042 47.4033 165.322 53.4642 161.55 59.1272C153.012 71.9311 143.367 84.1684 134.107 96.4262C130.784 100.831 127.48 105.206 124.189 109.634C123.494 110.501 120.909 113.49 120.909 113.49C120.909 113.49 138.029 97.5095 145.925 90.1336C158.279 78.5965 170.739 67.0376 183.949 56.4876C188.173 53.1151 192.639 49.7894 197.326 47.094C199.369 45.9151 201.811 44.8356 204.14 44.3344C205.432 44.0578 206.773 43.9211 208.121 45.6981C209.584 47.8359 208.438 50.2624 207.8 52.662C206.951 55.8426 205.087 58.5464 203.37 61.3175C198.627 68.9706 193.182 75.4121 187.288 82.159C176.025 95.0541 164.089 107.309 152.191 119.599C150.002 121.96 148.332 123.139 146.175 126.369C149.713 123.461 152.905 121.09 154.277 119.951Z" fill="#5F4DD5" fill-opacity="0.16"></path>
</svg></svg></g></g></svg></g></svg>